<svg width="184" height="32" viewBox="0 0 184 32" fill="none" xmlns="http://www.w3.org/2000/svg">
<path fill-rule="evenodd" clip-rule="evenodd" d="M10 9C10.2652 9 10.5196 9.10536 10.7071 9.29289C10.8946 9.48043 11 9.73478 11 10V15H16C16.2652 15 16.5196 15.1054 16.7071 15.2929C16.8946 15.4804 17 15.7348 17 16C17 16.2652 16.8946 16.5196 16.7071 16.7071C16.5196 16.8946 16.2652 17 16 17H11V22C11 22.2652 10.8946 22.5196 10.7071 22.7071C10.5196 22.8946 10.2652 23 10 23C9.73478 23 9.48043 22.8946 9.29289 22.7071C9.10536 22.5196 9 22.2652 9 22V17H4C3.73478 17 3.48043 16.8946 3.29289 16.7071C3.10536 16.5196 3 16.2652 3 16C3 15.7348 3.10536 15.4804 3.29289 15.2929C3.48043 15.1054 3.73478 15 4 15H9V10C9 9.73478 9.10536 9.48043 9.29289 9.29289C9.48043 9.10536 9.73478 9 10 9Z" fill="#4482E9"/>
<path d="M24.742 23L29.62 10.4H31.6L36.442 23H34.372L31.492 15.404C31.456 15.32 31.384 15.116 31.276 14.792C31.18 14.468 31.066 14.108 30.934 13.712C30.802 13.316 30.682 12.956 30.574 12.632C30.466 12.296 30.394 12.08 30.358 11.984L30.772 11.966C30.7 12.17 30.61 12.428 30.502 12.74C30.406 13.052 30.298 13.382 30.178 13.73C30.07 14.078 29.962 14.408 29.854 14.72C29.746 15.02 29.656 15.272 29.584 15.476L26.722 23H24.742ZM26.902 19.868L27.622 17.996H33.346L34.174 19.868H26.902ZM41.7819 23.18C40.9179 23.18 40.1439 22.97 39.4599 22.55C38.7879 22.118 38.2539 21.536 37.8579 20.804C37.4619 20.06 37.2639 19.214 37.2639 18.266C37.2639 17.318 37.4559 16.478 37.8399 15.746C38.2359 15.002 38.7699 14.42 39.4419 14C40.1139 13.568 40.8759 13.352 41.7279 13.352C42.1959 13.352 42.6459 13.43 43.0779 13.586C43.5219 13.73 43.9179 13.934 44.2659 14.198C44.6139 14.45 44.8839 14.732 45.0759 15.044C45.2799 15.344 45.3819 15.65 45.3819 15.962L44.8419 15.998V9.68H46.6959V23H44.8419V20.75H45.2019C45.2019 21.038 45.1059 21.326 44.9139 21.614C44.7219 21.89 44.4639 22.148 44.1399 22.388C43.8279 22.628 43.4619 22.82 43.0419 22.964C42.6339 23.108 42.2139 23.18 41.7819 23.18ZM42.0339 21.578C42.5979 21.578 43.0959 21.434 43.5279 21.146C43.9599 20.858 44.2959 20.468 44.5359 19.976C44.7879 19.472 44.9139 18.902 44.9139 18.266C44.9139 17.63 44.7879 17.066 44.5359 16.574C44.2959 16.07 43.9599 15.674 43.5279 15.386C43.0959 15.098 42.5979 14.954 42.0339 14.954C41.4699 14.954 40.9719 15.098 40.5399 15.386C40.1079 15.674 39.7659 16.07 39.5139 16.574C39.2739 17.066 39.1539 17.63 39.1539 18.266C39.1539 18.902 39.2739 19.472 39.5139 19.976C39.7659 20.468 40.1079 20.858 40.5399 21.146C40.9719 21.434 41.4699 21.578 42.0339 21.578ZM53.1901 23.18C52.3261 23.18 51.5521 22.97 50.8681 22.55C50.1961 22.118 49.6621 21.536 49.2661 20.804C48.8701 20.06 48.6721 19.214 48.6721 18.266C48.6721 17.318 48.8641 16.478 49.2481 15.746C49.6441 15.002 50.1781 14.42 50.8501 14C51.5221 13.568 52.2841 13.352 53.1361 13.352C53.6041 13.352 54.0541 13.43 54.4861 13.586C54.9301 13.73 55.3261 13.934 55.6741 14.198C56.0221 14.45 56.2921 14.732 56.4841 15.044C56.6881 15.344 56.7901 15.65 56.7901 15.962L56.2501 15.998V9.68H58.1041V23H56.2501V20.75H56.6101C56.6101 21.038 56.5141 21.326 56.3221 21.614C56.1301 21.89 55.8721 22.148 55.5481 22.388C55.2361 22.628 54.8701 22.82 54.4501 22.964C54.0421 23.108 53.6221 23.18 53.1901 23.18ZM53.4421 21.578C54.0061 21.578 54.5041 21.434 54.9361 21.146C55.3681 20.858 55.7041 20.468 55.9441 19.976C56.1961 19.472 56.3221 18.902 56.3221 18.266C56.3221 17.63 56.1961 17.066 55.9441 16.574C55.7041 16.07 55.3681 15.674 54.9361 15.386C54.5041 15.098 54.0061 14.954 53.4421 14.954C52.8781 14.954 52.3801 15.098 51.9481 15.386C51.5161 15.674 51.1741 16.07 50.9221 16.574C50.6821 17.066 50.5621 17.63 50.5621 18.266C50.5621 18.902 50.6821 19.472 50.9221 19.976C51.1741 20.468 51.5161 20.858 51.9481 21.146C52.3801 21.434 52.8781 21.578 53.4421 21.578ZM65.6653 23V13.55H67.5373V15.566L67.1953 15.782C67.2913 15.47 67.4413 15.17 67.6453 14.882C67.8613 14.594 68.1193 14.342 68.4193 14.126C68.7313 13.898 69.0613 13.718 69.4093 13.586C69.7693 13.454 70.1353 13.388 70.5073 13.388C71.0473 13.388 71.5213 13.478 71.9293 13.658C72.3373 13.838 72.6733 14.108 72.9373 14.468C73.2013 14.828 73.3933 15.278 73.5133 15.818L73.2253 15.746L73.3513 15.44C73.4833 15.164 73.6633 14.906 73.8913 14.666C74.1313 14.414 74.4013 14.192 74.7013 14C75.0013 13.808 75.3193 13.658 75.6553 13.55C75.9913 13.442 76.3213 13.388 76.6453 13.388C77.3533 13.388 77.9353 13.532 78.3913 13.82C78.8593 14.108 79.2073 14.546 79.4353 15.134C79.6753 15.722 79.7953 16.454 79.7953 17.33V23H77.9233V17.438C77.9233 16.634 77.7673 16.046 77.4553 15.674C77.1553 15.29 76.6813 15.098 76.0333 15.098C75.6973 15.098 75.3793 15.158 75.0793 15.278C74.7913 15.386 74.5393 15.542 74.3233 15.746C74.1073 15.95 73.9393 16.19 73.8193 16.466C73.6993 16.73 73.6393 17.024 73.6393 17.348V23H71.7673V17.402C71.7673 16.658 71.6053 16.088 71.2813 15.692C70.9693 15.296 70.5133 15.098 69.9133 15.098C69.5773 15.098 69.2653 15.158 68.9773 15.278C68.6893 15.386 68.4373 15.542 68.2213 15.746C68.0053 15.938 67.8373 16.172 67.7173 16.448C67.5973 16.712 67.5373 17 67.5373 17.312V23H65.6653ZM86.5254 23.18C85.6014 23.18 84.7734 22.97 84.0414 22.55C83.3214 22.118 82.7514 21.536 82.3314 20.804C81.9114 20.06 81.7014 19.214 81.7014 18.266C81.7014 17.318 81.9114 16.478 82.3314 15.746C82.7514 15.002 83.3214 14.42 84.0414 14C84.7734 13.568 85.6014 13.352 86.5254 13.352C87.4374 13.352 88.2534 13.568 88.9734 14C89.7054 14.42 90.2814 15.002 90.7014 15.746C91.1214 16.478 91.3314 17.318 91.3314 18.266C91.3314 19.214 91.1214 20.06 90.7014 20.804C90.2814 21.536 89.7054 22.118 88.9734 22.55C88.2534 22.97 87.4374 23.18 86.5254 23.18ZM86.5254 21.488C87.0894 21.488 87.5934 21.35 88.0374 21.074C88.4814 20.786 88.8294 20.402 89.0814 19.922C89.3334 19.43 89.4534 18.878 89.4414 18.266C89.4534 17.642 89.3334 17.09 89.0814 16.61C88.8294 16.118 88.4814 15.734 88.0374 15.458C87.5934 15.182 87.0894 15.044 86.5254 15.044C85.9614 15.044 85.4514 15.188 84.9954 15.476C84.5514 15.752 84.2034 16.136 83.9514 16.628C83.6994 17.108 83.5794 17.654 83.5914 18.266C83.5794 18.878 83.6994 19.43 83.9514 19.922C84.2034 20.402 84.5514 20.786 84.9954 21.074C85.4514 21.35 85.9614 21.488 86.5254 21.488ZM93.3517 23V13.55H95.2237V16.52L95.0437 15.8C95.1757 15.344 95.3977 14.93 95.7097 14.558C96.0337 14.186 96.3997 13.892 96.8077 13.676C97.2277 13.46 97.6597 13.352 98.1037 13.352C98.3077 13.352 98.4997 13.37 98.6797 13.406C98.8717 13.442 99.0217 13.484 99.1297 13.532L98.6437 15.548C98.4997 15.488 98.3377 15.44 98.1577 15.404C97.9897 15.356 97.8217 15.332 97.6537 15.332C97.3297 15.332 97.0177 15.398 96.7177 15.53C96.4297 15.65 96.1717 15.824 95.9437 16.052C95.7277 16.268 95.5537 16.526 95.4217 16.826C95.2897 17.114 95.2237 17.432 95.2237 17.78V23H93.3517ZM104.617 23.18C103.645 23.18 102.781 22.976 102.025 22.568C101.281 22.148 100.693 21.578 100.261 20.858C99.8411 20.138 99.6311 19.31 99.6311 18.374C99.6311 17.63 99.7511 16.952 99.9911 16.34C100.231 15.728 100.561 15.2 100.981 14.756C101.413 14.3 101.923 13.952 102.511 13.712C103.111 13.46 103.759 13.334 104.455 13.334C105.067 13.334 105.637 13.454 106.165 13.694C106.693 13.922 107.149 14.24 107.533 14.648C107.929 15.056 108.229 15.542 108.433 16.106C108.649 16.658 108.751 17.264 108.739 17.924L108.721 18.716H100.999L100.585 17.24H107.119L106.849 17.546V17.114C106.813 16.718 106.681 16.364 106.453 16.052C106.225 15.74 105.937 15.494 105.589 15.314C105.241 15.134 104.863 15.044 104.455 15.044C103.807 15.044 103.261 15.17 102.817 15.422C102.373 15.662 102.037 16.022 101.809 16.502C101.581 16.97 101.467 17.552 101.467 18.248C101.467 18.908 101.605 19.484 101.881 19.976C102.157 20.456 102.547 20.828 103.051 21.092C103.555 21.356 104.137 21.488 104.797 21.488C105.265 21.488 105.697 21.41 106.093 21.254C106.501 21.098 106.939 20.816 107.407 20.408L108.343 21.722C108.055 22.01 107.701 22.262 107.281 22.478C106.873 22.694 106.435 22.868 105.967 23C105.511 23.12 105.061 23.18 104.617 23.18ZM119.813 23.18C118.937 23.18 118.151 22.964 117.455 22.532C116.771 22.1 116.225 21.512 115.817 20.768C115.421 20.024 115.223 19.19 115.223 18.266C115.223 17.342 115.421 16.508 115.817 15.764C116.225 15.02 116.771 14.432 117.455 14C118.151 13.568 118.937 13.352 119.813 13.352C120.653 13.352 121.415 13.526 122.099 13.874C122.795 14.21 123.323 14.672 123.683 15.26L122.657 16.52C122.465 16.244 122.219 15.992 121.919 15.764C121.619 15.536 121.301 15.356 120.965 15.224C120.629 15.092 120.305 15.026 119.993 15.026C119.417 15.026 118.901 15.17 118.445 15.458C118.001 15.734 117.647 16.118 117.383 16.61C117.119 17.102 116.987 17.654 116.987 18.266C116.987 18.878 117.125 19.43 117.401 19.922C117.677 20.402 118.043 20.786 118.499 21.074C118.955 21.362 119.459 21.506 120.011 21.506C120.335 21.506 120.647 21.452 120.947 21.344C121.259 21.236 121.559 21.074 121.847 20.858C122.135 20.642 122.405 20.378 122.657 20.066L123.683 21.326C123.299 21.866 122.747 22.31 122.027 22.658C121.319 23.006 120.581 23.18 119.813 23.18ZM125.432 23V9.68H127.286V15.494L126.962 15.71C127.082 15.29 127.316 14.906 127.664 14.558C128.012 14.198 128.426 13.91 128.906 13.694C129.386 13.466 129.878 13.352 130.382 13.352C131.102 13.352 131.702 13.496 132.182 13.784C132.662 14.06 133.022 14.486 133.262 15.062C133.502 15.638 133.622 16.364 133.622 17.24V23H131.768V17.366C131.768 16.826 131.696 16.382 131.552 16.034C131.408 15.674 131.186 15.416 130.886 15.26C130.586 15.092 130.214 15.02 129.77 15.044C129.41 15.044 129.08 15.104 128.78 15.224C128.48 15.332 128.216 15.488 127.988 15.692C127.772 15.896 127.598 16.136 127.466 16.412C127.346 16.676 127.286 16.964 127.286 17.276V23H126.368C126.212 23 126.056 23 125.9 23C125.744 23 125.588 23 125.432 23ZM136.443 23V13.55H138.297V23H136.443ZM137.343 11.462C136.947 11.462 136.641 11.36 136.425 11.156C136.209 10.952 136.101 10.664 136.101 10.292C136.101 9.944 136.209 9.662 136.425 9.446C136.653 9.23 136.959 9.122 137.343 9.122C137.739 9.122 138.045 9.224 138.261 9.428C138.477 9.632 138.585 9.92 138.585 10.292C138.585 10.64 138.471 10.922 138.243 11.138C138.027 11.354 137.727 11.462 137.343 11.462ZM141.183 23V9.68H143.037V23H141.183ZM149.43 23.18C148.566 23.18 147.792 22.97 147.108 22.55C146.436 22.118 145.902 21.536 145.506 20.804C145.11 20.06 144.912 19.214 144.912 18.266C144.912 17.318 145.104 16.478 145.488 15.746C145.884 15.002 146.418 14.42 147.09 14C147.762 13.568 148.524 13.352 149.376 13.352C149.844 13.352 150.294 13.43 150.726 13.586C151.17 13.73 151.566 13.934 151.914 14.198C152.262 14.45 152.532 14.732 152.724 15.044C152.928 15.344 153.03 15.65 153.03 15.962L152.49 15.998V9.68H154.344V23H152.49V20.75H152.85C152.85 21.038 152.754 21.326 152.562 21.614C152.37 21.89 152.112 22.148 151.788 22.388C151.476 22.628 151.11 22.82 150.69 22.964C150.282 23.108 149.862 23.18 149.43 23.18ZM149.682 21.578C150.246 21.578 150.744 21.434 151.176 21.146C151.608 20.858 151.944 20.468 152.184 19.976C152.436 19.472 152.562 18.902 152.562 18.266C152.562 17.63 152.436 17.066 152.184 16.574C151.944 16.07 151.608 15.674 151.176 15.386C150.744 15.098 150.246 14.954 149.682 14.954C149.118 14.954 148.62 15.098 148.188 15.386C147.756 15.674 147.414 16.07 147.162 16.574C146.922 17.066 146.802 17.63 146.802 18.266C146.802 18.902 146.922 19.472 147.162 19.976C147.414 20.468 147.756 20.858 148.188 21.146C148.62 21.434 149.118 21.578 149.682 21.578ZM156.897 23V13.55H158.769V16.52L158.589 15.8C158.721 15.344 158.943 14.93 159.255 14.558C159.579 14.186 159.945 13.892 160.353 13.676C160.773 13.46 161.205 13.352 161.649 13.352C161.853 13.352 162.045 13.37 162.225 13.406C162.417 13.442 162.567 13.484 162.675 13.532L162.189 15.548C162.045 15.488 161.883 15.44 161.703 15.404C161.535 15.356 161.367 15.332 161.199 15.332C160.875 15.332 160.563 15.398 160.263 15.53C159.975 15.65 159.717 15.824 159.489 16.052C159.273 16.268 159.099 16.526 158.967 16.826C158.835 17.114 158.769 17.432 158.769 17.78V23H156.897ZM168.162 23.18C167.19 23.18 166.326 22.976 165.57 22.568C164.826 22.148 164.238 21.578 163.806 20.858C163.386 20.138 163.176 19.31 163.176 18.374C163.176 17.63 163.296 16.952 163.536 16.34C163.776 15.728 164.106 15.2 164.526 14.756C164.958 14.3 165.468 13.952 166.056 13.712C166.656 13.46 167.304 13.334 168 13.334C168.612 13.334 169.182 13.454 169.71 13.694C170.238 13.922 170.694 14.24 171.078 14.648C171.474 15.056 171.774 15.542 171.978 16.106C172.194 16.658 172.296 17.264 172.284 17.924L172.266 18.716H164.544L164.13 17.24H170.664L170.394 17.546V17.114C170.358 16.718 170.226 16.364 169.998 16.052C169.77 15.74 169.482 15.494 169.134 15.314C168.786 15.134 168.408 15.044 168 15.044C167.352 15.044 166.806 15.17 166.362 15.422C165.918 15.662 165.582 16.022 165.354 16.502C165.126 16.97 165.012 17.552 165.012 18.248C165.012 18.908 165.15 19.484 165.426 19.976C165.702 20.456 166.092 20.828 166.596 21.092C167.1 21.356 167.682 21.488 168.342 21.488C168.81 21.488 169.242 21.41 169.638 21.254C170.046 21.098 170.484 20.816 170.952 20.408L171.888 21.722C171.6 22.01 171.246 22.262 170.826 22.478C170.418 22.694 169.98 22.868 169.512 23C169.056 23.12 168.606 23.18 168.162 23.18ZM174.299 23V13.55H176.153V15.494L175.829 15.71C175.949 15.29 176.183 14.906 176.531 14.558C176.879 14.198 177.293 13.91 177.773 13.694C178.253 13.466 178.745 13.352 179.249 13.352C179.969 13.352 180.569 13.496 181.049 13.784C181.529 14.06 181.889 14.486 182.129 15.062C182.369 15.638 182.489 16.364 182.489 17.24V23H180.635V17.366C180.635 16.826 180.563 16.382 180.419 16.034C180.275 15.674 180.053 15.416 179.753 15.26C179.453 15.092 179.081 15.02 178.637 15.044C178.277 15.044 177.947 15.104 177.647 15.224C177.347 15.332 177.083 15.488 176.855 15.692C176.639 15.896 176.465 16.136 176.333 16.412C176.213 16.676 176.153 16.964 176.153 17.276V23H175.235C175.079 23 174.923 23 174.767 23C174.611 23 174.455 23 174.299 23Z" fill="#4482E9"/>
</svg>
