<svg width="812" height="55" viewBox="0 0 812 55" fill="none" xmlns="http://www.w3.org/2000/svg">
<path d="M0 28.9023C0 16.7324 10.5897 7.23971 22.7071 8.36868C66.0131 12.4035 159.923 19.0708 203 6.03558C260 -11.2127 360 13.9557 406 14.2917C452 14.6278 550 0.493447 638.5 14.2917C699.014 23.7267 757.892 16.3987 789.078 10.8206C800.756 8.73182 812 17.6105 812 29.4739C812 38.6097 805.237 46.2926 796.148 47.2186C761.727 50.7256 678.348 57.5166 617.5 48.561C539 37.0074 485.276 48.561 406 48.561C326.724 48.561 302 23.9957 203 45.4602C127.609 61.8059 49.3192 53.2564 16.2658 48.2491C6.7332 46.8049 0 38.5436 0 28.9023Z" fill="#DBEBF8"/>
</svg>
