<svg width="28" height="37" viewBox="0 0 28 37" fill="none" xmlns="http://www.w3.org/2000/svg">
<path d="M14.9921 3.11096C15.0105 8.09864 13.2839 17.1208 26.5661 19.3015C18.3209 20.4707 15.1701 26.7315 14.9937 34.7623C14.7915 28.7004 15.6378 21.7007 2.11133 19.7821C15.0937 18.7737 14.9136 8.23665 14.9921 3.11096Z" stroke="white" stroke-width="2" stroke-miterlimit="1.5" stroke-linecap="round" stroke-linejoin="round"/>
<path d="M1 1.65576C3.10294 4.09016 4.77033 6.91397 6.92843 9.29574" stroke="white" stroke-width="2" stroke-miterlimit="1.5" stroke-linecap="round" stroke-linejoin="round"/>
<path d="M21.749 11.1147C23.3625 9.81839 24.888 8.34236 26.1953 6.74902" stroke="white" stroke-width="2" stroke-miterlimit="1.5" stroke-linecap="round" stroke-linejoin="round"/>
<path d="M7.66908 27.85C5.44573 29.7742 3.38103 31.9164 1.37012 34.0347" stroke="white" stroke-width="2" stroke-miterlimit="1.5" stroke-linecap="round" stroke-linejoin="round"/>
<path d="M20.9307 31.5524C21.1557 31.9327 24.1548 35.3627 24.4479 35.6558" stroke="white" stroke-width="2" stroke-miterlimit="1.5" stroke-linecap="round" stroke-linejoin="round"/>
</svg>
