<svg width="219" height="218" viewBox="0 0 219 218" fill="none" xmlns="http://www.w3.org/2000/svg">
<g filter="url(#filter0_d_186_238)">
<rect x="31.5" y="20" width="160" height="160" rx="50" fill="white"/>
<path d="M99.4172 108.948L82.1536 99.1786L66.2649 60.1525C66.068 59.6499 64.4548 55.3722 66.111 51.7652C66.9383 49.9757 69.2415 48.7877 70.4344 47.977C72.0906 46.845 75.3468 44.1607 77.7889 42.3448C77.2131 42.9183 76.7366 43.5889 76.3858 44.3568C74.7164 47.949 76.3296 52.2398 76.5265 52.744L99.4172 108.948Z" fill="url(#paint0_linear_186_238)"/>
<path d="M166.643 138.21L156.39 145.611L113.602 160L56.7878 118.431L56.5595 118.146C55.2441 116.533 53.8527 112.395 57.0741 107.309C58.3894 105.221 65.6695 99.7734 69.6536 97.4583C68.7585 98.0663 67.9759 98.8819 67.3472 99.869C64.1258 104.994 65.5173 109.113 66.8326 110.744L67.061 111.01L123.875 152.578L166.643 138.21Z" fill="url(#paint1_linear_186_238)"/>
<path d="M163.328 100.171C156.39 83.0121 150.975 67.5905 142.668 67.5988C140.589 67.6004 137.77 68.3963 135.311 71.8319C133.425 69.441 130.794 67.429 127.287 67.429C126.562 67.429 125.839 67.5048 125.095 67.6943C122.694 68.2645 120.864 69.6503 119.815 71.7182C119.663 72.0214 119.529 72.3065 119.434 72.6097C116.976 69.6486 114.079 67.2577 111.163 67.2577C110.496 67.2577 109.848 67.3714 109.219 67.5988C107.675 68.1689 105.865 69.0027 104.588 70.5022L91.704 44.4803C90.751 42.8095 88.0822 40 83.9656 40C82.8985 40 81.8114 40.1714 80.688 40.5504C80.4778 40.6262 80.2694 40.702 80.0774 40.7975H80.0592C79.1823 41.1765 78.4196 41.7088 77.7909 42.3349C77.2184 42.9232 76.7419 43.5872 76.3812 44.3469C74.7233 47.9539 76.3233 52.243 76.5334 52.7357L99.4241 108.938L82.1572 99.1819L79.8888 97.9098C79.3362 97.5687 76.8577 96.145 74.0003 96.145C73.1432 96.145 72.2845 96.2785 71.5218 96.5438C71.4258 96.5635 71.3497 96.5817 71.2736 96.6196C71.1594 96.6575 71.0452 96.7151 70.9311 96.7712C70.6829 96.8849 70.4165 97.0183 70.1121 97.1881C69.94 97.2639 69.8076 97.3594 69.6554 97.4534C68.7603 98.0614 67.9777 98.877 67.349 99.8641C64.1276 104.989 65.519 109.108 66.8344 110.739L67.0627 111.005L123.875 152.578L166.644 138.21V138.172L166.968 136.615C167.102 135.855 170.532 117.975 163.328 100.171Z" fill="#8D99AF"/>
<path d="M162.509 134.641L124.696 147.338L70.4147 107.65C70.1666 107.156 69.4617 105.335 71.3297 102.374C71.9965 101.329 72.8552 100.836 73.9985 100.836C75.7143 100.836 77.3903 101.899 77.4102 101.899L104.111 116.99L106.818 114.617L80.898 50.971C80.5936 50.2114 79.9632 47.8204 80.6697 46.3012C80.9559 45.675 81.4506 45.2565 82.2332 44.9912C82.8437 44.7819 83.4344 44.688 83.9672 44.688C86.3299 44.688 87.5509 46.7197 87.6072 46.7955L107.601 87.1877L111.051 85.5547C109.088 81.3413 106.972 76.2167 107.849 74.0894C108.172 73.2952 109.705 71.7792 111.583 71.8814C114.227 72.0231 118.481 78.5632 121.534 84.7951L125.002 83.2198C124.277 81.4929 122.677 76.482 124.031 73.8439C124.449 73.0085 125.136 72.496 126.203 72.2489C126.565 72.1533 126.928 72.1154 127.29 72.1154C132.131 72.1154 134.704 80.8651 134.724 80.9607L138.46 80.4482V77.6421C138.46 76.0668 138.988 74.4767 140.144 73.4023C140.932 72.6707 141.771 72.3049 142.653 72.3049C143.053 72.3049 143.455 72.3774 143.842 72.496C145.394 72.9689 146.607 74.1685 147.318 75.6219C149.18 79.4184 153.717 88.9426 158.966 101.935C164.661 116.059 163.099 130.635 162.509 134.641Z" fill="url(#paint2_linear_186_238)"/>
</g>
<defs>
<filter id="filter0_d_186_238" x="0.5" y="0" width="218" height="218" filterUnits="userSpaceOnUse" color-interpolation-filters="sRGB">
<feFlood flood-opacity="0" result="BackgroundImageFix"/>
<feColorMatrix in="SourceAlpha" type="matrix" values="0 0 0 0 0 0 0 0 0 0 0 0 0 0 0 0 0 0 127 0" result="hardAlpha"/>
<feOffset dx="-2" dy="9"/>
<feGaussianBlur stdDeviation="14.5"/>
<feComposite in2="hardAlpha" operator="out"/>
<feColorMatrix type="matrix" values="0 0 0 0 0.750833 0 0 0 0 0.788406 0 0 0 0 0.85 0 0 0 1 0"/>
<feBlend mode="normal" in2="BackgroundImageFix" result="effect1_dropShadow_186_238"/>
<feBlend mode="normal" in="SourceGraphic" in2="effect1_dropShadow_186_238" result="shape"/>
</filter>
<linearGradient id="paint0_linear_186_238" x1="68.73" y1="46.3788" x2="100.262" y2="115.331" gradientUnits="userSpaceOnUse">
<stop stop-color="#475B80"/>
<stop offset="0.6559" stop-color="#2C3D51"/>
<stop offset="1" stop-color="#21313E"/>
</linearGradient>
<linearGradient id="paint1_linear_186_238" x1="55.0996" y1="128.728" x2="166.644" y2="128.728" gradientUnits="userSpaceOnUse">
<stop stop-color="#475B80"/>
<stop offset="0.6559" stop-color="#2C3D51"/>
<stop offset="1" stop-color="#21313E"/>
</linearGradient>
<linearGradient id="paint2_linear_186_238" x1="121.522" y1="45.4498" x2="111.638" y2="190.35" gradientUnits="userSpaceOnUse">
<stop offset="0.00045606" stop-color="white"/>
<stop offset="0.2594" stop-color="#F7F8FF"/>
<stop offset="0.6551" stop-color="#E2E6FF"/>
<stop offset="1" stop-color="#CAD2FF"/>
</linearGradient>
</defs>
</svg>
