<svg width="219" height="218" viewBox="0 0 219 218" fill="none" xmlns="http://www.w3.org/2000/svg">
<g filter="url(#filter0_d_9_97)">
<rect x="31.5" y="20" width="160" height="160" rx="50" fill="white"/>
<path d="M83.9814 144.247C99.071 144.727 112.405 129.726 112.405 129.726C116.566 138.572 137.372 149.901 148.818 155.6C149.074 155.568 149.336 155.546 149.603 155.508C149.603 155.508 172.565 152.497 189.9 150.573C189.9 150.573 137.656 123.468 137.218 44.2C137.218 44.2 58.1171 70.0694 32.8999 73.0787C32.8979 73.0807 42.8338 121.069 83.9814 144.247Z" fill="url(#paint0_linear_9_97)"/>
<path d="M83.9834 144.245C84.2151 144.373 84.4648 144.509 84.7005 144.647C84.7125 144.643 84.7125 144.643 84.7165 144.655C86.6022 145.325 88.5698 145.968 90.6053 146.59C90.6772 146.618 90.7451 146.632 90.819 146.66C90.891 146.688 90.9609 146.704 91.0488 146.738C97.4389 148.688 104.488 150.435 111.891 151.861C112.313 151.941 112.718 152.011 113.138 152.091C113.601 152.181 114.059 152.261 114.518 152.341C125.593 154.326 137.344 155.542 148.82 155.6C144.501 153.444 138.824 150.483 133.219 147.156C133.043 147.048 132.854 146.932 132.664 146.816C132.476 146.712 132.286 146.596 132.111 146.486C128.175 144.103 124.318 141.567 121.054 139.016C120.882 138.882 120.714 138.758 120.547 138.634C120.387 138.496 120.215 138.36 120.043 138.226C117.049 135.803 114.616 133.376 113.168 131.084C113.066 130.926 112.962 130.768 112.876 130.618C112.786 130.456 112.694 130.294 112.618 130.142C112.534 130.004 112.475 129.858 112.407 129.726C112.407 129.726 112.211 129.944 111.833 130.348C111.634 130.554 111.376 130.816 111.074 131.106C110.825 131.354 110.547 131.636 110.235 131.928C105.859 136.073 95.4294 144.605 83.9834 144.245Z" fill="url(#paint1_linear_9_97)"/>
<path d="M77.3935 78.8512C72.9888 80.0489 68.5982 81.3126 64.1576 82.3683C59.7091 83.3941 55.2645 84.4438 50.756 85.2396L50.7261 85.1217C55.0628 83.652 59.4634 82.4343 63.858 81.1946C68.2606 79.9849 72.7172 78.9812 77.1538 77.9115C86.0249 75.748 94.904 73.6185 103.791 71.5231L103.821 71.641C95.0199 74.0784 86.2107 76.4798 77.3935 78.8512Z" fill="#CECCD8"/>
<path d="M67.6256 89.3067C72.0282 88.097 76.4848 87.0933 80.9213 86.0235C89.7925 83.8601 98.6716 81.7306 107.559 79.6351L107.589 79.7531C98.7875 82.1905 89.9783 84.5939 81.161 86.9633C76.7544 88.161 72.3658 89.4247 67.9252 90.4804C63.4747 91.5061 59.0321 92.5559 54.5236 93.3517L54.4937 93.2337C58.8303 91.7661 63.229 90.5464 67.6256 89.3067Z" fill="#CECCD8"/>
<path d="M82.9868 106.704C88.5879 105.103 94.247 103.705 99.8881 102.243L133.737 93.4955L133.769 93.6135L100.142 103.179C94.5367 104.769 88.9475 106.424 83.3044 107.874C77.6533 109.294 72.0062 110.735 66.2932 111.925L66.2612 111.809C71.7925 109.947 77.3936 108.336 82.9868 106.704Z" fill="#CECCD8"/>
<path d="M86.5283 115.262C92.1314 113.658 97.7885 112.265 103.43 110.801L137.278 102.053L137.31 102.171L103.683 111.737C98.0782 113.327 92.489 114.982 86.8459 116.432C81.1948 117.851 75.5477 119.293 69.8347 120.485L69.8027 120.367C75.334 118.505 80.9331 116.896 86.5283 115.262Z" fill="#CECCD8"/>
<path d="M91.52 124.842C97.1231 123.238 102.78 121.842 108.421 120.381L142.27 111.633L142.302 111.751L108.675 121.317C103.07 122.906 97.4827 124.562 91.8376 126.011C86.1865 127.431 80.5394 128.873 74.8264 130.062L74.7944 129.946C80.3257 128.083 85.9268 126.473 91.52 124.842Z" fill="#CECCD8"/>
<path d="M111.831 130.346C111.632 130.552 111.374 130.814 111.072 131.104C110.823 131.352 110.545 131.634 110.233 131.926C106.692 132.932 103.134 133.929 99.5744 134.839C94.0331 136.231 88.5059 137.63 82.9008 138.788L82.8628 138.674C88.2882 136.849 93.7695 135.273 99.2548 133.669C103.428 132.484 107.625 131.416 111.831 130.346Z" fill="#CECCD8"/>
<path d="M164.389 138.248L164.407 138.306L133.217 147.156C133.041 147.048 132.851 146.932 132.662 146.816C132.474 146.712 132.284 146.596 132.108 146.486L164.383 138.188L164.389 138.248Z" fill="#CECCD8"/>
<path d="M155.795 129.043L155.803 129.105L155.821 129.163L122.868 138.5C122.262 138.672 121.657 138.846 121.05 139.018C120.878 138.884 120.71 138.76 120.542 138.636C120.383 138.498 120.211 138.362 120.039 138.228C120.898 138.01 121.753 137.782 122.61 137.564L155.795 129.043Z" fill="#CECCD8"/>
<path d="M148.992 120.795L149.03 120.911L116.068 130.262C115.101 130.54 114.132 130.806 113.166 131.084C113.064 130.926 112.96 130.768 112.874 130.618C112.784 130.456 112.692 130.294 112.616 130.142C113.685 129.868 114.754 129.596 115.824 129.323L148.992 120.795Z" fill="#CECCD8"/>
</g>
<defs>
<filter id="filter0_d_9_97" x="0.5" y="0" width="218" height="218" filterUnits="userSpaceOnUse" color-interpolation-filters="sRGB">
<feFlood flood-opacity="0" result="BackgroundImageFix"/>
<feColorMatrix in="SourceAlpha" type="matrix" values="0 0 0 0 0 0 0 0 0 0 0 0 0 0 0 0 0 0 127 0" result="hardAlpha"/>
<feOffset dx="-2" dy="9"/>
<feGaussianBlur stdDeviation="14.5"/>
<feComposite in2="hardAlpha" operator="out"/>
<feColorMatrix type="matrix" values="0 0 0 0 0.750833 0 0 0 0 0.788406 0 0 0 0 0.85 0 0 0 1 0"/>
<feBlend mode="normal" in2="BackgroundImageFix" result="effect1_dropShadow_9_97"/>
<feBlend mode="normal" in="SourceGraphic" in2="effect1_dropShadow_9_97" result="shape"/>
</filter>
<linearGradient id="paint0_linear_9_97" x1="147.666" y1="-9.55431" x2="94.1539" y2="169.081" gradientUnits="userSpaceOnUse">
<stop stop-color="white"/>
<stop offset="1" stop-color="#EDEEFF"/>
</linearGradient>
<linearGradient id="paint1_linear_9_97" x1="110.125" y1="163.527" x2="57.7498" y2="276.647" gradientUnits="userSpaceOnUse">
<stop stop-color="#C2CCED"/>
<stop offset="0.0512" stop-color="#C4CEED"/>
<stop offset="1" stop-color="#E4EBF0"/>
</linearGradient>
</defs>
</svg>
