<svg width="17" height="21" viewBox="0 0 17 21" fill="none" xmlns="http://www.w3.org/2000/svg">
<path fill-rule="evenodd" clip-rule="evenodd" d="M4.09204 1.12412C6.6236 -0.399269 9.7353 -0.372643 12.2431 1.19387C14.7263 2.79229 16.2355 5.64499 16.2214 8.7137C16.1636 11.7623 14.5453 14.6279 12.5225 16.8432C11.3549 18.1276 10.0488 19.2633 8.63086 20.2272C8.48483 20.3146 8.32486 20.3732 8.15886 20.3999C7.9991 20.3929 7.84351 20.344 7.70613 20.2577C5.54133 18.8094 3.64214 16.9608 2.09992 14.8007C0.809444 12.9976 0.0762828 10.8192 1.34608e-06 8.56127C-0.00167392 5.48667 1.56048 2.64751 4.09204 1.12412ZM5.5553 9.83415C5.98115 10.9214 6.9863 11.6306 8.10144 11.6306C8.83199 11.6361 9.53426 11.333 10.0517 10.789C10.5692 10.245 10.859 9.50518 10.8564 8.73447C10.8603 7.55806 10.1915 6.4952 9.16241 6.04216C8.13327 5.58911 6.94675 5.83525 6.15684 6.66564C5.36693 7.49604 5.12946 8.74689 5.5553 9.83415Z" fill="#4482E9"/>
</svg>
