<svg width="180" height="44" viewBox="0 0 180 44" fill="none" xmlns="http://www.w3.org/2000/svg">
<rect width="180" height="44" fill="#F8F9FD"/>
<path d="M179.412 11.5739C188.824 28.8945 82.1118 29.9771 82.1118 29.9771C82.1118 29.9771 0 30.8917 0 19.907C0 8.92224 9.04431 2.97709 62.5853 2.97709C116.126 2.97709 179.412 0.589127 179.412 11.5739Z" fill="#9EBFF5"/>
<path d="M26.6148 18.656C26.6148 19.408 26.4388 20.056 26.0868 20.6C25.7508 21.128 25.1908 21.616 24.4068 22.064C23.8788 22.384 23.2628 22.624 22.5588 22.784C21.8548 22.944 21.1428 23.024 20.4228 23.024C19.6868 23.024 18.7748 22.784 17.6868 22.304C16.9028 21.92 16.2788 21.464 15.8148 20.936C15.3668 20.408 15.1428 19.832 15.1428 19.208C15.1428 18.776 15.2388 18.464 15.4308 18.272C15.6228 18.064 15.9348 17.96 16.3668 17.96C16.5908 17.96 16.8228 18.056 17.0628 18.248C17.3028 18.424 17.4468 18.6 17.4948 18.776C17.7188 19.432 18.1108 19.936 18.6708 20.288C19.2308 20.624 19.9268 20.792 20.7588 20.792C21.7188 20.792 22.5188 20.616 23.1588 20.264C23.8148 19.912 24.1428 19.44 24.1428 18.848C24.1428 18.272 23.7908 17.76 23.0868 17.312C22.3828 16.864 21.6628 16.552 20.9268 16.376C19.8708 16.088 18.9348 15.744 18.1188 15.344C17.2708 14.928 16.6388 14.416 16.2228 13.808C15.8068 13.2 15.5988 12.56 15.5988 11.888C15.5988 11.264 15.8148 10.632 16.2468 9.992C16.6788 9.336 17.1908 8.864 17.7828 8.576C18.1028 8.416 18.6468 8.248 19.4148 8.072C20.1988 7.88 20.7668 7.784 21.1188 7.784C21.5828 7.784 22.0948 7.84 22.6548 7.952C23.2148 8.064 23.6708 8.224 24.0228 8.432C24.7268 8.832 25.2468 9.192 25.5828 9.512C25.9188 9.832 26.0868 10.232 26.0868 10.712C26.0868 11 25.9748 11.256 25.7508 11.48C25.5428 11.704 25.1748 11.816 24.6468 11.816C24.5188 11.816 24.3908 11.76 24.2628 11.648C24.1348 11.536 23.9748 11.368 23.7828 11.144C23.5268 10.808 23.2788 10.584 23.0388 10.472C22.7988 10.392 22.4468 10.304 21.9828 10.208C21.5348 10.112 21.1348 10.064 20.7828 10.064C20.3988 10.064 19.9988 10.144 19.5828 10.304C19.1668 10.464 18.8148 10.696 18.5268 11C18.2548 11.288 18.1188 11.624 18.1188 12.008C18.1188 12.328 18.2628 12.608 18.5508 12.848C18.8548 13.072 19.2148 13.256 19.6308 13.4C20.1108 13.592 20.6308 13.76 21.1908 13.904C21.9268 14.128 22.5268 14.336 22.9908 14.528C23.4708 14.704 23.9348 14.928 24.3828 15.2C25.1668 15.664 25.7348 16.144 26.0868 16.64C26.4388 17.12 26.6148 17.792 26.6148 18.656ZM28.4034 14.912C28.2754 14.912 28.1554 14.864 28.0434 14.768C27.9474 14.656 27.8994 14.528 27.8994 14.384C27.8994 14.016 28.0594 13.672 28.3794 13.352C28.4754 13.304 28.6674 13.224 28.9554 13.112C29.2434 13 29.4994 12.944 29.7234 12.944C30.3314 12.944 30.8274 13.112 31.2114 13.448C31.5954 13.768 31.7874 14.232 31.7874 14.84C31.7874 15.016 31.7554 15.392 31.6914 15.968C31.6274 16.64 31.5954 17.16 31.5954 17.528C31.5954 18.648 31.7474 19.552 32.0514 20.24C32.1634 20.464 32.3394 20.64 32.5794 20.768C32.8194 20.896 33.0354 20.96 33.2274 20.96C33.6914 20.96 34.0674 20.88 34.3554 20.72C34.6434 20.56 34.9554 20.304 35.2914 19.952C35.6274 19.6 35.8434 19.2 35.9394 18.752C36.0514 18.304 36.1314 17.688 36.1794 16.904C36.2114 16.392 36.2434 16.016 36.2754 15.776C36.3554 15.008 36.3954 14.352 36.3954 13.808C36.3954 13.456 36.4914 13.168 36.6834 12.944C36.8754 12.704 37.1394 12.584 37.4754 12.584C37.6674 12.584 37.8834 12.648 38.1234 12.776C38.3794 12.888 38.5474 13.024 38.6274 13.184C38.7234 13.344 38.7714 13.608 38.7714 13.976C38.7714 14.168 38.7474 14.352 38.6994 14.528C38.5874 14.928 38.5314 15.408 38.5314 15.968L38.5554 17.216C38.5554 18.352 38.6354 19.192 38.7954 19.736C38.8754 19.992 38.9874 20.256 39.1314 20.528C39.2754 20.784 39.4114 21 39.5394 21.176C39.8594 21.528 40.0674 21.776 40.1634 21.92C40.2594 22.048 40.3074 22.176 40.3074 22.304C40.3074 22.496 40.2114 22.68 40.0194 22.856C39.8434 23.016 39.6514 23.096 39.4434 23.096C38.8514 23.096 38.3394 22.896 37.9074 22.496C37.4754 22.096 37.1554 21.576 36.9474 20.936C36.4034 21.56 35.8994 22.064 35.4354 22.448C35.1154 22.672 34.7234 22.84 34.2594 22.952C33.7954 23.048 33.3314 23.096 32.8674 23.096C32.2434 23.096 31.6114 22.84 30.9714 22.328C30.3314 21.816 29.8994 21.224 29.6754 20.552C29.6594 20.52 29.6114 20.392 29.5314 20.168C29.4674 19.944 29.4354 19.608 29.4354 19.16C29.4354 18.568 29.4674 17.824 29.5314 16.928C29.5794 16.352 29.6034 15.824 29.6034 15.344C29.6034 15.2 29.5474 15.08 29.4354 14.984C29.3394 14.888 29.2274 14.84 29.0994 14.84C29.0034 14.84 28.8914 14.856 28.7634 14.888C28.6514 14.904 28.5314 14.912 28.4034 14.912ZM57.269 22.16C57.029 21.712 56.877 21.216 56.813 20.672C56.749 20.112 56.717 19.344 56.717 18.368C56.717 17.44 56.589 16.632 56.333 15.944C56.077 15.256 55.549 14.912 54.749 14.912C54.445 14.912 54.141 15.008 53.837 15.2C53.549 15.376 53.333 15.6 53.189 15.872C52.965 16.304 52.813 16.776 52.733 17.288C52.653 17.784 52.613 18.36 52.613 19.016C52.613 19.432 52.637 19.856 52.685 20.288C52.685 20.416 52.693 20.624 52.709 20.912C52.741 21.184 52.757 21.432 52.757 21.656C52.757 22.616 52.421 23.096 51.749 23.096C50.869 23.096 50.405 22.632 50.357 21.704C50.357 21.048 50.365 20.696 50.381 20.648V19.616C50.381 19.04 50.357 18.48 50.309 17.936C50.261 17.392 50.205 16.984 50.141 16.712C49.997 16.184 49.805 15.776 49.565 15.488C49.341 15.2 48.981 15.056 48.485 15.056C47.781 15.056 47.213 15.36 46.781 15.968C46.477 16.448 46.277 17.032 46.181 17.72C46.085 18.6 46.013 19.296 45.965 19.808C45.933 20.304 45.917 20.88 45.917 21.536C45.917 22 45.837 22.376 45.677 22.664C45.533 22.952 45.253 23.096 44.837 23.096C44.533 23.096 44.213 23.016 43.877 22.856C43.557 22.68 43.397 22.448 43.397 22.16C43.397 21.856 43.429 21.552 43.493 21.248C43.637 20.336 43.709 18.704 43.709 16.352C43.709 15.968 43.613 15.6 43.421 15.248C43.245 14.88 43.029 14.696 42.773 14.696C42.709 14.696 42.589 14.728 42.413 14.792C42.253 14.856 42.133 14.888 42.053 14.888C41.845 14.888 41.653 14.792 41.477 14.6C41.317 14.408 41.237 14.248 41.237 14.12C41.237 13.72 41.429 13.384 41.813 13.112C42.213 12.824 42.629 12.68 43.061 12.68C43.653 12.68 44.157 12.864 44.573 13.232C44.989 13.6 45.309 14.112 45.533 14.768C45.901 14.128 46.397 13.616 47.021 13.232C47.645 12.832 48.341 12.632 49.109 12.632C49.589 12.632 49.973 12.696 50.261 12.824C50.565 12.936 50.813 13.104 51.005 13.328C51.197 13.536 51.445 13.856 51.749 14.288C52.149 13.776 52.661 13.376 53.285 13.088C53.925 12.8 54.581 12.656 55.253 12.656C56.053 12.656 56.773 12.984 57.413 13.64C58.053 14.28 58.485 15.024 58.709 15.872C58.821 16.304 58.877 17.136 58.877 18.368L58.973 19.76C59.053 20.592 59.325 21.096 59.789 21.272C60.333 21.432 60.605 21.6 60.605 21.776C60.605 22.16 60.509 22.44 60.317 22.616C60.173 22.712 59.973 22.816 59.717 22.928C59.461 23.04 59.261 23.096 59.117 23.096C58.253 23.096 57.637 22.784 57.269 22.16ZM62.2807 14.744C61.8807 14.408 61.6807 14.016 61.6807 13.568C61.6807 13.344 61.7927 13.144 62.0167 12.968C62.2407 12.776 62.5127 12.68 62.8327 12.68C63.4087 12.68 63.8807 12.832 64.2487 13.136C64.6167 13.44 64.9367 13.88 65.2087 14.456C65.5447 13.832 65.9687 13.376 66.4807 13.088C67.0087 12.784 67.6727 12.632 68.4727 12.632C68.9527 12.632 69.3367 12.696 69.6247 12.824C69.9287 12.936 70.1767 13.104 70.3687 13.328C70.5607 13.536 70.8007 13.856 71.0887 14.288C71.5047 13.776 72.0247 13.376 72.6487 13.088C73.2887 12.8 73.9447 12.656 74.6167 12.656C75.4007 12.656 76.1127 12.984 76.7527 13.64C77.4087 14.296 77.8487 15.04 78.0727 15.872C78.1527 16.224 78.2087 17.056 78.2407 18.368L78.3367 19.76C78.4167 20.608 78.6887 21.112 79.1527 21.272C79.3767 21.336 79.5607 21.416 79.7047 21.512C79.8647 21.592 79.9447 21.68 79.9447 21.776C79.9767 22.16 79.8887 22.44 79.6807 22.616C79.5367 22.712 79.3367 22.816 79.0807 22.928C78.8247 23.04 78.6247 23.096 78.4807 23.096C77.6167 23.096 77.0007 22.784 76.6327 22.16C76.3927 21.744 76.2407 21.272 76.1767 20.744C76.1127 20.2 76.0807 19.464 76.0807 18.536C76.0807 17.544 75.9607 16.696 75.7207 15.992C75.4807 15.272 74.9367 14.912 74.0887 14.912C73.7847 14.912 73.4807 15.008 73.1767 15.2C72.8887 15.376 72.6807 15.6 72.5527 15.872C72.3287 16.304 72.1767 16.776 72.0967 17.288C72.0167 17.784 71.9767 18.36 71.9767 19.016C71.9767 19.432 72.0007 19.856 72.0487 20.288C72.0487 20.416 72.0567 20.624 72.0727 20.912C72.1047 21.184 72.1207 21.432 72.1207 21.656C72.1207 22.056 72.0407 22.4 71.8807 22.688C71.7367 22.96 71.4807 23.096 71.1127 23.096C70.2327 23.096 69.7687 22.632 69.7207 21.704C69.7207 21.048 69.7287 20.696 69.7447 20.648V19.616C69.7447 19.04 69.7207 18.48 69.6727 17.936C69.6247 17.392 69.5687 16.984 69.5047 16.712C69.3607 16.184 69.1687 15.776 68.9287 15.488C68.6887 15.2 68.3207 15.056 67.8247 15.056C67.4887 15.056 67.1767 15.136 66.8887 15.296C66.6007 15.456 66.3527 15.68 66.1447 15.968C65.8407 16.448 65.6407 17.032 65.5447 17.72C65.4487 18.6 65.3767 19.296 65.3287 19.808C65.2967 20.304 65.2807 20.88 65.2807 21.536C65.2807 22 65.2007 22.376 65.0407 22.664C64.8967 22.952 64.6167 23.096 64.2007 23.096C63.8967 23.096 63.5767 23.016 63.2407 22.856C62.9207 22.68 62.7607 22.448 62.7607 22.16C62.7607 21.856 62.7927 21.552 62.8567 21.248C63.0007 20.336 63.0727 18.784 63.0727 16.592C63.0727 16.24 62.9927 15.896 62.8327 15.56C62.6887 15.208 62.5047 14.936 62.2807 14.744ZM81.3772 17.504C81.3772 16.528 81.5932 15.72 82.0252 15.08C82.4572 14.424 83.0572 13.808 83.8252 13.232C84.0492 13.072 84.4252 12.936 84.9532 12.824C85.4812 12.696 85.9452 12.632 86.3452 12.632C86.8252 12.632 87.3292 12.736 87.8572 12.944C88.4012 13.136 88.8412 13.36 89.1772 13.616C89.7692 14.048 90.1772 14.552 90.4012 15.128C90.6252 15.688 90.7372 16.36 90.7372 17.144C90.7372 17.48 90.5452 17.808 90.1612 18.128C89.7932 18.432 89.3932 18.584 88.9612 18.584L88.0492 18.56C87.5852 18.56 86.9212 18.576 86.0572 18.608L85.5532 18.632C85.2012 18.664 84.9372 18.68 84.7612 18.68C84.5052 18.68 84.1532 18.648 83.7052 18.584C83.7692 19.336 84.0492 19.928 84.5452 20.36C85.0412 20.776 85.5772 20.984 86.1532 20.984C87.1612 20.984 87.8652 20.784 88.2652 20.384C88.6012 20.144 88.8252 19.992 88.9372 19.928C89.0492 19.864 89.2252 19.832 89.4652 19.832C89.7212 19.832 89.9452 19.952 90.1372 20.192C90.3292 20.432 90.4252 20.672 90.4252 20.912C90.4252 21.184 90.2572 21.464 89.9212 21.752C89.6012 22.024 89.1612 22.312 88.6012 22.616C88.2972 22.744 87.8812 22.856 87.3532 22.952C86.8252 23.048 86.3852 23.096 86.0332 23.096C85.4732 23.096 84.8492 22.936 84.1612 22.616C83.4732 22.28 82.9612 21.912 82.6252 21.512C82.2892 21.112 81.9932 20.544 81.7372 19.808C81.4972 19.072 81.3772 18.304 81.3772 17.504ZM86.1532 16.856C87.2892 16.856 88.1212 16.816 88.6492 16.736C88.6172 16.272 88.4732 15.896 88.2172 15.608C87.9612 15.304 87.6092 15.048 87.1612 14.84C87.0172 14.776 86.8892 14.728 86.7772 14.696C86.6652 14.664 86.5372 14.648 86.3932 14.648C85.6572 14.648 85.0332 14.848 84.5212 15.248C84.0252 15.648 83.7292 16.16 83.6332 16.784C84.4332 16.832 85.2732 16.856 86.1532 16.856ZM96.3438 22.04C96.3118 22.312 96.1998 22.552 96.0078 22.76C95.8158 22.968 95.5678 23.072 95.2638 23.072C94.7838 23.072 94.4318 22.984 94.2078 22.808C93.9838 22.616 93.8718 22.272 93.8718 21.776C93.8718 21.104 93.9118 20.368 93.9918 19.568C94.0558 18.64 94.0878 17.928 94.0878 17.432C94.0878 17.176 94.0718 16.856 94.0398 16.472C94.0078 16.12 93.9918 15.856 93.9918 15.68C93.9438 15.408 93.8318 15.192 93.6558 15.032C93.4958 14.872 93.2398 14.736 92.8878 14.624C92.7438 14.56 92.6238 14.456 92.5278 14.312C92.4318 14.152 92.3838 14.008 92.3838 13.88C92.3838 13.512 92.5278 13.232 92.8158 13.04C93.1038 12.848 93.4558 12.752 93.8718 12.752C94.3358 12.752 94.7358 12.912 95.0718 13.232C95.4078 13.552 95.6638 13.952 95.8398 14.432C96.2078 13.904 96.6558 13.48 97.1838 13.16C97.7278 12.84 98.2558 12.68 98.7678 12.68C99.4238 12.68 99.9758 12.792 100.424 13.016C100.888 13.224 101.12 13.592 101.12 14.12C101.12 14.424 100.984 14.744 100.712 15.08C100.456 15.4 100.192 15.56 99.9198 15.56C99.7118 15.56 99.4638 15.464 99.1758 15.272C99.0638 15.192 98.9358 15.128 98.7918 15.08C98.6638 15.016 98.5278 14.984 98.3838 14.984C98.1278 14.984 97.8878 15.024 97.6638 15.104C97.4398 15.184 97.2878 15.28 97.2078 15.392C96.9518 15.792 96.7598 16.152 96.6318 16.472C96.5198 16.792 96.4638 17.136 96.4638 17.504C96.4638 17.776 96.4558 17.992 96.4398 18.152L96.4158 19.52L96.4398 20.432C96.4398 21.104 96.4078 21.64 96.3438 22.04ZM114.715 10.112C114.955 10.4 115.123 10.632 115.219 10.808C115.315 10.984 115.363 11.152 115.363 11.312C115.363 11.504 115.235 11.728 114.979 11.984C114.739 12.24 114.499 12.368 114.259 12.368C113.939 12.368 113.683 12.32 113.491 12.224C113.299 12.128 113.139 11.976 113.011 11.768C112.707 11.288 112.355 10.864 111.955 10.496C111.555 10.112 111.019 9.92 110.347 9.92C109.691 9.92 108.955 10.072 108.139 10.376C107.323 10.68 106.723 11.056 106.339 11.504C105.475 12.56 105.043 13.96 105.043 15.704C105.043 17.096 105.475 18.288 106.339 19.28C107.251 20.304 108.403 20.816 109.795 20.816C110.435 20.816 111.131 20.704 111.883 20.48C112.651 20.24 113.259 19.856 113.707 19.328H113.683C113.971 19.024 114.331 18.872 114.763 18.872C115.019 18.872 115.259 18.984 115.483 19.208C115.723 19.432 115.843 19.656 115.843 19.88C115.843 20.12 115.803 20.336 115.723 20.528C115.659 20.704 115.531 20.904 115.339 21.128C114.683 21.848 113.843 22.352 112.819 22.64C111.811 22.912 110.659 23.048 109.363 23.048C108.291 23.048 107.259 22.792 106.267 22.28C105.291 21.768 104.483 21.12 103.843 20.336C103.523 19.872 103.211 19.208 102.907 18.344C102.619 17.464 102.475 16.752 102.475 16.208C102.475 14.816 102.683 13.496 103.099 12.248C103.531 10.984 104.171 9.976 105.019 9.224C105.579 8.712 106.387 8.328 107.443 8.072C108.499 7.816 109.467 7.688 110.347 7.688C111.051 7.688 111.651 7.792 112.147 8C112.659 8.192 113.099 8.456 113.467 8.792C113.835 9.112 114.251 9.552 114.715 10.112ZM128.865 21.848C128.865 22.2 128.673 22.496 128.289 22.736C127.905 22.976 127.553 23.096 127.233 23.096C126.641 23.096 126.161 23.024 125.793 22.88C125.441 22.72 125.105 22.432 124.785 22.016C124.385 22.384 123.825 22.664 123.105 22.856C122.385 23.032 121.721 23.12 121.113 23.12C120.121 23.12 119.297 22.856 118.641 22.328C118.001 21.784 117.681 20.992 117.681 19.952C117.681 19.504 117.817 19.056 118.089 18.608C118.361 18.144 118.697 17.776 119.097 17.504C119.529 17.216 120.017 17.024 120.561 16.928C121.105 16.816 121.737 16.76 122.457 16.76C122.793 16.76 123.193 16.824 123.657 16.952C124.121 17.08 124.489 17.216 124.761 17.36V16.976C124.761 16.112 124.545 15.52 124.113 15.2C123.697 14.864 123.025 14.696 122.097 14.696C121.809 14.696 121.545 14.744 121.305 14.84C121.081 14.92 120.817 15.04 120.513 15.2C120.225 15.36 119.953 15.44 119.697 15.44C119.473 15.44 119.257 15.352 119.049 15.176C118.841 14.984 118.737 14.784 118.737 14.576C118.737 13.904 119.153 13.416 119.985 13.112C120.833 12.792 121.697 12.632 122.577 12.632C123.025 12.632 123.537 12.728 124.113 12.92C124.689 13.096 125.177 13.344 125.577 13.664C126.057 14.064 126.425 14.544 126.681 15.104C126.953 15.664 127.089 16.272 127.089 16.928C127.089 17.136 127.073 17.448 127.041 17.864C127.009 18.312 126.993 18.696 126.993 19.016L126.969 19.664C126.937 20.016 126.921 20.296 126.921 20.504C126.921 20.696 126.985 20.864 127.113 21.008C127.257 21.136 127.425 21.2 127.617 21.2L128.289 21.176C128.465 21.176 128.601 21.248 128.697 21.392C128.809 21.52 128.865 21.672 128.865 21.848ZM121.113 21.224C121.801 21.224 122.377 21.152 122.841 21.008C123.305 20.864 123.865 20.6 124.521 20.216C124.585 19.944 124.625 19.584 124.641 19.136C123.761 18.72 123.033 18.512 122.457 18.512C121.913 18.512 121.473 18.536 121.137 18.584C120.801 18.616 120.497 18.752 120.225 18.992C119.953 19.232 119.817 19.616 119.817 20.144C119.817 20.448 119.961 20.704 120.249 20.912C120.553 21.12 120.841 21.224 121.113 21.224ZM145.558 22.16C145.318 21.712 145.166 21.216 145.102 20.672C145.038 20.112 145.006 19.344 145.006 18.368C145.006 17.44 144.878 16.632 144.622 15.944C144.366 15.256 143.838 14.912 143.038 14.912C142.734 14.912 142.43 15.008 142.126 15.2C141.838 15.376 141.622 15.6 141.478 15.872C141.254 16.304 141.102 16.776 141.022 17.288C140.942 17.784 140.902 18.36 140.902 19.016C140.902 19.432 140.926 19.856 140.974 20.288C140.974 20.416 140.982 20.624 140.998 20.912C141.03 21.184 141.046 21.432 141.046 21.656C141.046 22.616 140.71 23.096 140.038 23.096C139.158 23.096 138.694 22.632 138.646 21.704C138.646 21.048 138.654 20.696 138.67 20.648V19.616C138.67 19.04 138.646 18.48 138.598 17.936C138.55 17.392 138.494 16.984 138.43 16.712C138.286 16.184 138.094 15.776 137.854 15.488C137.63 15.2 137.27 15.056 136.774 15.056C136.07 15.056 135.502 15.36 135.07 15.968C134.766 16.448 134.566 17.032 134.47 17.72C134.374 18.6 134.302 19.296 134.254 19.808C134.222 20.304 134.206 20.88 134.206 21.536C134.206 22 134.126 22.376 133.966 22.664C133.822 22.952 133.542 23.096 133.126 23.096C132.822 23.096 132.502 23.016 132.166 22.856C131.846 22.68 131.686 22.448 131.686 22.16C131.686 21.856 131.718 21.552 131.782 21.248C131.926 20.336 131.998 18.704 131.998 16.352C131.998 15.968 131.902 15.6 131.71 15.248C131.534 14.88 131.318 14.696 131.062 14.696C130.998 14.696 130.878 14.728 130.702 14.792C130.542 14.856 130.422 14.888 130.342 14.888C130.134 14.888 129.942 14.792 129.766 14.6C129.606 14.408 129.526 14.248 129.526 14.12C129.526 13.72 129.718 13.384 130.102 13.112C130.502 12.824 130.918 12.68 131.35 12.68C131.942 12.68 132.446 12.864 132.862 13.232C133.278 13.6 133.598 14.112 133.822 14.768C134.19 14.128 134.686 13.616 135.31 13.232C135.934 12.832 136.63 12.632 137.398 12.632C137.878 12.632 138.262 12.696 138.55 12.824C138.854 12.936 139.102 13.104 139.294 13.328C139.486 13.536 139.734 13.856 140.038 14.288C140.438 13.776 140.95 13.376 141.574 13.088C142.214 12.8 142.87 12.656 143.542 12.656C144.342 12.656 145.062 12.984 145.702 13.64C146.342 14.28 146.774 15.024 146.998 15.872C147.11 16.304 147.166 17.136 147.166 18.368L147.262 19.76C147.342 20.592 147.614 21.096 148.078 21.272C148.622 21.432 148.894 21.6 148.894 21.776C148.894 22.16 148.798 22.44 148.606 22.616C148.462 22.712 148.262 22.816 148.006 22.928C147.75 23.04 147.55 23.096 147.406 23.096C146.542 23.096 145.926 22.784 145.558 22.16ZM150.33 14.816C150.17 14.592 150.058 14.4 149.994 14.24C149.93 14.08 149.898 13.88 149.898 13.64C149.898 13.384 150.002 13.168 150.21 12.992C150.434 12.816 150.714 12.728 151.05 12.728C151.386 12.728 151.722 12.856 152.058 13.112C152.394 13.352 152.666 13.664 152.874 14.048C153.21 13.568 153.666 13.224 154.242 13.016C154.818 12.808 155.442 12.704 156.114 12.704C156.85 12.704 157.53 12.928 158.154 13.376C158.794 13.824 159.298 14.4 159.666 15.104C160.034 15.808 160.218 16.512 160.218 17.216C160.218 17.904 160.146 18.52 160.002 19.064C159.858 19.592 159.602 20.128 159.234 20.672C158.818 21.248 158.258 21.72 157.554 22.088C156.866 22.456 156.042 22.64 155.082 22.64C154.826 22.64 154.514 22.576 154.146 22.448C153.778 22.304 153.474 22.152 153.234 21.992C153.122 23.08 153.066 24.024 153.066 24.824C153.066 25.304 153.09 25.76 153.138 26.192C153.17 26.704 153.186 27.072 153.186 27.296C153.186 27.648 153.066 27.904 152.826 28.064C152.586 28.24 152.322 28.328 152.034 28.328C151.458 28.328 151.074 28.168 150.882 27.848C150.706 27.544 150.618 27.104 150.618 26.528C150.682 25.152 150.762 23.88 150.858 22.712C150.97 21.032 151.026 18.968 151.026 16.52C151.026 16.328 150.946 16.048 150.786 15.68C150.642 15.312 150.49 15.024 150.33 14.816ZM153.33 19.616C153.41 19.92 153.634 20.176 154.002 20.384C154.386 20.576 154.73 20.672 155.034 20.672C155.946 20.672 156.626 20.424 157.074 19.928C157.41 19.576 157.626 19.232 157.722 18.896C157.834 18.56 157.89 18.024 157.89 17.288C157.89 16.712 157.778 16.232 157.554 15.848C157.33 15.448 157.058 15.16 156.738 14.984C156.418 14.792 156.114 14.696 155.826 14.696C155.17 14.696 154.634 14.896 154.218 15.296C153.818 15.68 153.562 16.208 153.45 16.88C153.37 17.408 153.33 18.32 153.33 19.616Z" fill="white"/>
<path d="M6.124 34.04C6.124 34.272 6.116 34.58 6.1 34.964L6.088 35.744C6.088 36.504 6.144 37.14 6.256 37.652C6.416 38.372 6.656 38.928 6.976 39.32C7.272 39.664 7.636 39.836 8.068 39.836C8.404 39.836 8.704 39.736 8.968 39.536C9.232 39.328 9.436 39.072 9.58 38.768C9.82 38.272 9.94 37.66 9.94 36.932C9.94 36.492 9.912 35.972 9.856 35.372C9.808 34.7 9.784 34.196 9.784 33.86C9.784 33.684 9.888 33.572 10.096 33.524C10.304 33.468 10.52 33.44 10.744 33.44C10.824 33.44 10.916 33.492 11.02 33.596C11.124 33.7 11.176 33.812 11.176 33.932C11.176 34.172 11.164 34.4 11.14 34.616C11.124 34.856 11.116 35.024 11.116 35.12C11.116 35.424 11.132 35.848 11.164 36.392C11.172 36.528 11.18 36.692 11.188 36.884C11.196 37.076 11.2 37.296 11.2 37.544C11.2 38.088 11.068 38.632 10.804 39.176C10.548 39.712 10.188 40.156 9.724 40.508C9.26 40.852 8.736 41.024 8.152 41.024C7.256 41.024 6.556 40.736 6.052 40.16C5.548 39.576 5.204 38.824 5.02 37.904C4.916 37.376 4.848 36.824 4.816 36.248C4.792 35.672 4.78 34.9 4.78 33.932C4.78 33.804 4.84 33.684 4.96 33.572C5.088 33.46 5.224 33.404 5.368 33.404C5.872 33.404 6.124 33.616 6.124 34.04ZM13.517 41.048C13.357 41.048 13.221 41.02 13.109 40.964C12.997 40.908 12.929 40.848 12.905 40.784C12.817 40.464 12.773 40.044 12.773 39.524C12.773 38.564 12.789 37.784 12.821 37.184C12.853 36.472 12.869 35.788 12.869 35.132C12.869 34.94 12.845 34.66 12.797 34.292C12.789 34.228 12.777 34.112 12.761 33.944C12.745 33.776 12.737 33.62 12.737 33.476C12.737 33.3 12.797 33.16 12.917 33.056C13.045 32.952 13.209 32.9 13.409 32.9C13.569 32.9 13.697 32.952 13.793 33.056C13.897 33.152 13.949 33.284 13.949 33.452C13.949 33.708 13.957 34.068 13.973 34.532C13.989 34.964 13.997 35.288 13.997 35.504C13.997 35.744 13.989 36.064 13.973 36.464C13.957 36.704 13.949 36.88 13.949 36.992C13.949 37.344 13.953 37.636 13.961 37.868C14.257 37.572 14.645 37.224 15.125 36.824C15.605 36.424 15.977 36.144 16.241 35.984C16.521 35.816 16.705 35.732 16.793 35.732C16.961 35.732 17.105 35.768 17.225 35.84C17.345 35.912 17.405 36.016 17.405 36.152C17.405 36.288 17.385 36.396 17.345 36.476C17.305 36.556 17.233 36.636 17.129 36.716L15.581 37.844C15.757 37.932 15.905 38.044 16.025 38.18C16.153 38.316 16.281 38.484 16.409 38.684C16.681 39.132 16.897 39.46 17.057 39.668C17.225 39.876 17.377 39.98 17.513 39.98L17.813 39.968C17.869 39.968 17.917 40 17.957 40.064C18.005 40.128 18.029 40.22 18.029 40.34C18.029 40.524 17.937 40.672 17.753 40.784C17.577 40.896 17.377 40.952 17.153 40.952C16.841 40.952 16.565 40.832 16.325 40.592C16.085 40.344 15.857 40.012 15.641 39.596C15.329 39.004 15.021 38.652 14.717 38.54L13.949 39.164L13.997 40.472C13.997 40.68 13.941 40.828 13.829 40.916C13.725 41.004 13.621 41.048 13.517 41.048ZM18.8403 36.788C18.6323 36.644 18.5283 36.492 18.5283 36.332C18.5283 36.22 18.5763 36.116 18.6723 36.02C18.7683 35.924 18.9123 35.876 19.1043 35.876C19.3283 35.876 19.5283 35.936 19.7043 36.056C19.8883 36.168 20.0163 36.332 20.0883 36.548C20.2723 36.332 20.4803 36.16 20.7123 36.032C20.9523 35.904 21.1963 35.84 21.4443 35.84C21.7403 35.84 22.0083 35.92 22.2483 36.08C22.4883 36.24 22.6083 36.456 22.6083 36.728C22.6083 36.88 22.5403 37.036 22.4043 37.196C22.2763 37.356 22.1443 37.436 22.0083 37.436C21.9363 37.436 21.8723 37.42 21.8163 37.388C21.7683 37.348 21.7083 37.292 21.6363 37.22C21.5563 37.14 21.4883 37.084 21.4323 37.052C21.3763 37.012 21.3123 36.992 21.2402 36.992C21.1123 36.992 20.9923 37.012 20.8803 37.052C20.7683 37.092 20.6923 37.14 20.6523 37.196C20.5243 37.396 20.4283 37.576 20.3643 37.736C20.3083 37.896 20.2803 38.068 20.2803 38.252C20.2803 38.388 20.2763 38.496 20.2683 38.576L20.2563 39.26C20.2563 39.364 20.2603 39.48 20.2683 39.608C20.2763 39.736 20.2843 39.832 20.2923 39.896C20.3163 40.112 20.3283 40.32 20.3283 40.52C20.3283 40.656 20.2763 40.776 20.1723 40.88C20.0683 40.984 19.9403 41.036 19.7883 41.036C19.5483 41.036 19.3723 40.992 19.2603 40.904C19.1483 40.808 19.0923 40.636 19.0923 40.388L19.0803 39.62C19.0723 39.468 19.0683 39.252 19.0683 38.972L19.0803 38.18C19.0963 37.796 19.1043 37.484 19.1043 37.244C19.1043 37.156 19.0843 37.076 19.0443 37.004C19.0123 36.932 18.9443 36.86 18.8403 36.788ZM28.7757 40.424C28.7757 40.6 28.6797 40.748 28.4877 40.868C28.3037 40.988 28.1317 41.048 27.9717 41.048C27.6677 41.048 27.4237 41.012 27.2397 40.94C27.0637 40.86 26.8997 40.716 26.7477 40.508C26.5397 40.692 26.2557 40.832 25.8957 40.928C25.5357 41.016 25.2037 41.06 24.8997 41.06C24.4037 41.06 23.9957 40.928 23.6757 40.664C23.3557 40.392 23.1957 39.996 23.1957 39.476C23.1957 39.252 23.2557 39.048 23.3757 38.864C23.4957 38.672 23.6597 38.504 23.8677 38.36C24.0997 38.208 24.3637 38.092 24.6597 38.012C24.9557 37.924 25.2637 37.88 25.5837 37.88C25.7517 37.88 25.9517 37.912 26.1837 37.976C26.4157 38.04 26.5957 38.108 26.7237 38.18V37.988C26.7237 37.556 26.6197 37.26 26.4117 37.1C26.2037 36.932 25.8677 36.848 25.4037 36.848C25.2677 36.848 25.1317 36.876 24.9957 36.932C24.8677 36.988 24.7197 37.064 24.5517 37.16C24.3277 37.28 24.1157 37.34 23.9157 37.34C23.8437 37.34 23.7757 37.292 23.7117 37.196C23.6477 37.092 23.6157 37 23.6157 36.92C23.6157 36.688 23.7237 36.488 23.9397 36.32C24.1637 36.152 24.4277 36.028 24.7317 35.948C25.0357 35.86 25.3077 35.816 25.5477 35.816C25.7877 35.816 26.0637 35.864 26.3757 35.96C26.6877 36.048 26.9437 36.172 27.1437 36.332C27.3837 36.54 27.5677 36.784 27.6957 37.064C27.8317 37.336 27.8997 37.636 27.8997 37.964C27.8997 38.068 27.8917 38.224 27.8757 38.432C27.8597 38.656 27.8517 38.848 27.8517 39.008C27.8517 39.08 27.8437 39.188 27.8277 39.332C27.8117 39.508 27.8037 39.648 27.8037 39.752C27.8037 39.848 27.8397 39.932 27.9117 40.004C27.9837 40.068 28.0677 40.1 28.1637 40.1L28.4997 40.088C28.5877 40.088 28.6557 40.12 28.7037 40.184C28.7517 40.248 28.7757 40.328 28.7757 40.424ZM24.9117 40.112C25.2557 40.112 25.5437 40.076 25.7757 40.004C26.0077 39.932 26.2877 39.8 26.6157 39.608C26.6477 39.472 26.6677 39.292 26.6757 39.068C26.2357 38.86 25.8717 38.756 25.5837 38.756C25.2557 38.756 24.9637 38.816 24.7077 38.936C24.4517 39.056 24.3237 39.268 24.3237 39.572C24.3237 39.724 24.3877 39.852 24.5157 39.956C24.6437 40.06 24.7757 40.112 24.9117 40.112ZM30.1855 33.296C30.4655 33.32 30.7095 33.396 30.9175 33.524C31.1255 33.644 31.2295 33.828 31.2295 34.076C31.2295 34.26 31.1415 34.408 30.9655 34.52C30.7975 34.624 30.5935 34.676 30.3535 34.676C30.1215 34.676 29.9615 34.616 29.8735 34.496C29.7855 34.376 29.7415 34.252 29.7415 34.124C29.7415 33.884 29.7655 33.684 29.8135 33.524C29.8695 33.364 29.9935 33.288 30.1855 33.296ZM31.1455 38.612V38.96C31.1455 39.272 31.1535 39.568 31.1695 39.848C31.1935 40.12 31.2215 40.396 31.2535 40.676C31.2535 40.772 31.1975 40.86 31.0855 40.94C30.9735 41.012 30.8695 41.048 30.7735 41.048C30.6215 41.048 30.4655 41.02 30.3055 40.964C30.1535 40.9 30.0615 40.824 30.0295 40.736C29.9815 40.48 29.9575 40.252 29.9575 40.052C29.9575 39.396 29.9375 38.66 29.8975 37.844C29.8655 37.124 29.8495 36.62 29.8495 36.332C29.8495 36.188 29.9215 36.064 30.0655 35.96C30.2095 35.856 30.3615 35.804 30.5215 35.804C30.7535 35.804 30.9135 35.856 31.0015 35.96C31.0975 36.064 31.1455 36.228 31.1455 36.452V38.612ZM38.1158 40.076C38.1558 40.092 38.2198 40.112 38.3078 40.136C38.3958 40.16 38.4598 40.184 38.4998 40.208C38.5398 40.232 38.5598 40.268 38.5598 40.316C38.5678 40.508 38.4958 40.668 38.3438 40.796C38.1998 40.916 38.0278 40.976 37.8278 40.976C37.5158 40.976 37.2718 40.892 37.0958 40.724C36.9198 40.556 36.7918 40.3 36.7118 39.956C36.6798 39.82 36.6638 39.632 36.6638 39.392C36.6638 39.256 36.6718 39.036 36.6878 38.732C36.7038 38.412 36.7118 38.156 36.7118 37.964C36.7118 37.62 36.6758 37.36 36.6038 37.184C36.5318 37 36.3598 36.908 36.0878 36.908C35.8078 36.908 35.5558 37.02 35.3318 37.244C35.1158 37.468 34.9318 37.804 34.7798 38.252C34.5718 38.876 34.4558 39.704 34.4318 40.736C34.4318 40.792 34.3718 40.86 34.2518 40.94C34.1398 41.012 34.0038 41.048 33.8438 41.048C33.5478 41.048 33.3638 40.892 33.2918 40.58L33.2798 40.376C33.2798 40.304 33.2878 40.22 33.3038 40.124C33.3998 39.564 33.4478 39.076 33.4478 38.66C33.4478 38.476 33.4438 38.332 33.4358 38.228L33.4238 37.664C33.4238 37.472 33.3758 37.288 33.2798 37.112C33.1838 36.928 33.0718 36.836 32.9438 36.836C32.9038 36.836 32.8478 36.852 32.7758 36.884C32.7038 36.908 32.6438 36.92 32.5958 36.92C32.5158 36.92 32.4278 36.88 32.3318 36.8C32.2438 36.72 32.1998 36.636 32.1998 36.548C32.1998 36.38 32.2558 36.244 32.3678 36.14C32.4878 36.044 32.6038 35.968 32.7158 35.912C32.8358 35.856 32.9718 35.828 33.1238 35.828C33.2518 35.828 33.3558 35.84 33.4358 35.864C33.5158 35.888 33.6238 35.94 33.7598 36.02C33.8398 36.06 33.9318 36.172 34.0358 36.356C34.1398 36.54 34.2198 36.8 34.2758 37.136C34.4358 36.84 34.7038 36.528 35.0798 36.2C35.3598 35.944 35.7638 35.816 36.2918 35.816C36.7718 35.816 37.1518 35.992 37.4318 36.344C37.7118 36.688 37.8518 37.164 37.8518 37.772C37.8518 37.892 37.8438 38.088 37.8278 38.36C37.8038 38.576 37.7918 38.804 37.7918 39.044C37.7918 39.604 37.8998 39.948 38.1158 40.076ZM40.0404 33.296C40.3204 33.32 40.5604 33.396 40.7604 33.524C40.9684 33.644 41.0724 33.828 41.0724 34.076C41.0724 34.26 40.9884 34.408 40.8204 34.52C40.6524 34.624 40.4444 34.676 40.1964 34.676C39.9644 34.676 39.8044 34.616 39.7164 34.496C39.6284 34.376 39.5844 34.252 39.5844 34.124C39.5844 33.892 39.6124 33.696 39.6684 33.536C39.7244 33.368 39.8484 33.288 40.0404 33.296ZM39.8004 38.252V37.904C39.8004 37.504 39.7804 37.14 39.7404 36.812C39.7084 36.476 39.6884 36.268 39.6804 36.188C39.6884 36.1 39.7484 36.016 39.8604 35.936C39.9724 35.856 40.0724 35.816 40.1604 35.816C40.3124 35.816 40.4644 35.848 40.6164 35.912C40.7764 35.968 40.8764 36.04 40.9164 36.128C40.9564 36.424 40.9764 36.652 40.9764 36.812C40.9764 37.164 40.9924 37.74 41.0244 38.54L41.0364 39.008L41.0604 39.464C41.0684 39.592 41.0764 39.744 41.0844 39.92C41.0924 40.096 41.0964 40.296 41.0964 40.52C41.0964 40.672 41.0204 40.8 40.8684 40.904C40.7244 41.008 40.5724 41.06 40.4124 41.06C40.1804 41.06 40.0164 41.008 39.9204 40.904C39.8324 40.8 39.7884 40.636 39.7884 40.412L39.8004 38.252ZM47.9593 40.424C47.9593 40.6 47.8633 40.748 47.6713 40.868C47.4873 40.988 47.3153 41.048 47.1553 41.048C46.8513 41.048 46.6073 41.012 46.4233 40.94C46.2473 40.86 46.0833 40.716 45.9313 40.508C45.7233 40.692 45.4393 40.832 45.0793 40.928C44.7193 41.016 44.3873 41.06 44.0833 41.06C43.5873 41.06 43.1793 40.928 42.8593 40.664C42.5393 40.392 42.3793 39.996 42.3793 39.476C42.3793 39.252 42.4393 39.048 42.5593 38.864C42.6793 38.672 42.8433 38.504 43.0513 38.36C43.2833 38.208 43.5473 38.092 43.8433 38.012C44.1393 37.924 44.4473 37.88 44.7673 37.88C44.9353 37.88 45.1353 37.912 45.3673 37.976C45.5993 38.04 45.7793 38.108 45.9073 38.18V37.988C45.9073 37.556 45.8033 37.26 45.5953 37.1C45.3873 36.932 45.0513 36.848 44.5873 36.848C44.4513 36.848 44.3153 36.876 44.1793 36.932C44.0513 36.988 43.9033 37.064 43.7353 37.16C43.5113 37.28 43.2993 37.34 43.0993 37.34C43.0273 37.34 42.9593 37.292 42.8953 37.196C42.8313 37.092 42.7993 37 42.7993 36.92C42.7993 36.688 42.9073 36.488 43.1233 36.32C43.3473 36.152 43.6113 36.028 43.9153 35.948C44.2193 35.86 44.4913 35.816 44.7313 35.816C44.9713 35.816 45.2473 35.864 45.5593 35.96C45.8713 36.048 46.1273 36.172 46.3273 36.332C46.5673 36.54 46.7513 36.784 46.8793 37.064C47.0153 37.336 47.0833 37.636 47.0833 37.964C47.0833 38.068 47.0753 38.224 47.0593 38.432C47.0433 38.656 47.0353 38.848 47.0353 39.008C47.0353 39.08 47.0273 39.188 47.0113 39.332C46.9953 39.508 46.9873 39.648 46.9873 39.752C46.9873 39.848 47.0233 39.932 47.0953 40.004C47.1673 40.068 47.2513 40.1 47.3473 40.1L47.6833 40.088C47.7713 40.088 47.8393 40.12 47.8873 40.184C47.9353 40.248 47.9593 40.328 47.9593 40.424ZM44.0953 40.112C44.4393 40.112 44.7273 40.076 44.9593 40.004C45.1913 39.932 45.4713 39.8 45.7993 39.608C45.8313 39.472 45.8513 39.292 45.8593 39.068C45.4193 38.86 45.0553 38.756 44.7673 38.756C44.4393 38.756 44.1473 38.816 43.8913 38.936C43.6353 39.056 43.5073 39.268 43.5073 39.572C43.5073 39.724 43.5713 39.852 43.6993 39.956C43.8273 40.06 43.9593 40.112 44.0953 40.112ZM54.2291 40.076C54.2691 40.092 54.3331 40.112 54.4211 40.136C54.5091 40.16 54.5731 40.184 54.6131 40.208C54.6531 40.232 54.6731 40.268 54.6731 40.316C54.6811 40.508 54.6091 40.668 54.4571 40.796C54.3131 40.916 54.1411 40.976 53.9411 40.976C53.6291 40.976 53.3851 40.892 53.2091 40.724C53.0331 40.556 52.9051 40.3 52.8251 39.956C52.7931 39.82 52.7771 39.632 52.7771 39.392C52.7771 39.256 52.7851 39.036 52.8011 38.732C52.8171 38.412 52.8251 38.156 52.8251 37.964C52.8251 37.684 52.7451 37.44 52.5851 37.232C52.4331 37.016 52.2171 36.908 51.9371 36.908C51.7691 36.908 51.5931 36.96 51.4091 37.064C51.2251 37.16 51.0971 37.28 51.0251 37.424C50.9051 37.656 50.8211 37.908 50.7731 38.18C50.6851 38.66 50.6411 39.16 50.6411 39.68C50.6411 39.928 50.6451 40.12 50.6531 40.256C50.6531 40.288 50.6531 40.352 50.6531 40.448C50.6611 40.536 50.6531 40.62 50.6291 40.7C50.6131 40.772 50.5811 40.84 50.5331 40.904C50.4931 40.944 50.4291 40.976 50.3411 41C50.2611 41.032 50.1851 41.048 50.1131 41.048C50.0011 41.048 49.8611 41 49.6931 40.904C49.5251 40.808 49.4291 40.7 49.4051 40.58L49.3931 40.376C49.3931 40.304 49.4011 40.22 49.4171 40.124C49.5131 39.564 49.5611 39.076 49.5611 38.66C49.5611 38.476 49.5571 38.332 49.5491 38.228L49.5371 37.664C49.5371 37.472 49.4891 37.288 49.3931 37.112C49.2971 36.928 49.1851 36.836 49.0571 36.836C49.0171 36.836 48.9611 36.852 48.8891 36.884C48.8171 36.908 48.7571 36.92 48.7091 36.92C48.6291 36.92 48.5411 36.88 48.4451 36.8C48.3571 36.72 48.3131 36.636 48.3131 36.548C48.3131 36.38 48.3691 36.244 48.4811 36.14C48.6011 36.044 48.7171 35.968 48.8291 35.912C48.9491 35.856 49.0851 35.828 49.2371 35.828C49.3651 35.828 49.4691 35.84 49.5491 35.864C49.6291 35.888 49.7371 35.94 49.8731 36.02C49.9451 36.06 50.0291 36.148 50.1251 36.284C50.2211 36.42 50.3011 36.612 50.3651 36.86C50.5731 36.476 50.8291 36.208 51.1331 36.056C51.4451 35.896 51.8411 35.816 52.3211 35.816C52.5051 35.816 52.7011 35.876 52.9091 35.996C53.1251 36.116 53.3091 36.256 53.4611 36.416C53.6051 36.592 53.7251 36.812 53.8211 37.076C53.9171 37.332 53.9651 37.564 53.9651 37.772C53.9651 37.892 53.9571 38.088 53.9411 38.36C53.9171 38.576 53.9051 38.804 53.9051 39.044C53.9051 39.604 54.0131 39.948 54.2291 40.076ZM63.9736 35.228C63.6296 34.98 63.3336 34.8 63.0856 34.688C62.8376 34.568 62.5496 34.508 62.2216 34.508C61.5656 34.508 61.0016 34.676 60.5296 35.012C60.1696 35.276 59.9016 35.62 59.7256 36.044C59.5496 36.468 59.4616 36.944 59.4616 37.472C59.4616 37.976 59.5776 38.42 59.8096 38.804C60.0416 39.18 60.3416 39.468 60.7096 39.668C61.0776 39.868 61.4616 39.968 61.8616 39.968C62.2616 39.968 62.6056 39.908 62.8936 39.788C63.1896 39.66 63.4256 39.496 63.6016 39.296C63.8736 38.952 64.0096 38.496 64.0096 37.928C64.0096 37.848 63.9456 37.792 63.8176 37.76C63.6896 37.728 63.5056 37.712 63.2656 37.712L62.4016 37.724C62.1696 37.724 61.9856 37.68 61.8496 37.592C61.7136 37.504 61.6456 37.392 61.6456 37.256C61.6456 37.064 61.7096 36.924 61.8376 36.836C61.9656 36.74 62.1376 36.692 62.3536 36.692C62.6096 36.692 62.9536 36.708 63.3856 36.74C63.8176 36.772 64.1296 36.788 64.3216 36.788C64.6016 36.788 64.8256 36.876 64.9936 37.052C65.1696 37.228 65.2576 37.484 65.2576 37.82C65.2576 38.132 65.1896 38.496 65.0536 38.912C64.9176 39.328 64.7256 39.7 64.4776 40.028C64.2376 40.348 63.8816 40.592 63.4096 40.76C62.9456 40.92 62.4296 41 61.8616 41C61.3896 41 60.9336 40.924 60.4936 40.772C60.0536 40.62 59.6856 40.408 59.3896 40.136C59.0216 39.792 58.7296 39.384 58.5136 38.912C58.3056 38.432 58.2016 37.956 58.2016 37.484C58.2016 36.796 58.3616 36.128 58.6816 35.48C59.0096 34.824 59.4496 34.316 60.0016 33.956C60.2416 33.796 60.5776 33.664 61.0096 33.56C61.4416 33.456 61.8376 33.404 62.1976 33.404C62.7576 33.404 63.2496 33.492 63.6736 33.668C64.0976 33.836 64.4216 34.08 64.6456 34.4C64.7416 34.544 64.7896 34.672 64.7896 34.784C64.7896 34.912 64.7336 35.032 64.6216 35.144C64.5096 35.256 64.3976 35.312 64.2856 35.312C64.2376 35.312 64.1816 35.304 64.1176 35.288C64.0536 35.272 64.0056 35.252 63.9736 35.228ZM66.5707 36.788C66.3627 36.644 66.2587 36.492 66.2587 36.332C66.2587 36.22 66.3067 36.116 66.4027 36.02C66.4987 35.924 66.6427 35.876 66.8347 35.876C67.0587 35.876 67.2587 35.936 67.4347 36.056C67.6187 36.168 67.7467 36.332 67.8187 36.548C68.0027 36.332 68.2107 36.16 68.4427 36.032C68.6827 35.904 68.9267 35.84 69.1747 35.84C69.4707 35.84 69.7387 35.92 69.9787 36.08C70.2187 36.24 70.3387 36.456 70.3387 36.728C70.3387 36.88 70.2707 37.036 70.1347 37.196C70.0067 37.356 69.8747 37.436 69.7387 37.436C69.6667 37.436 69.6027 37.42 69.5467 37.388C69.4987 37.348 69.4387 37.292 69.3667 37.22C69.2867 37.14 69.2187 37.084 69.1627 37.052C69.1067 37.012 69.0427 36.992 68.9707 36.992C68.8427 36.992 68.7227 37.012 68.6107 37.052C68.4987 37.092 68.4227 37.14 68.3827 37.196C68.2547 37.396 68.1587 37.576 68.0947 37.736C68.0387 37.896 68.0107 38.068 68.0107 38.252C68.0107 38.388 68.0067 38.496 67.9987 38.576L67.9867 39.26C67.9867 39.364 67.9907 39.48 67.9987 39.608C68.0067 39.736 68.0147 39.832 68.0227 39.896C68.0467 40.112 68.0587 40.32 68.0587 40.52C68.0587 40.656 68.0067 40.776 67.9027 40.88C67.7987 40.984 67.6707 41.036 67.5187 41.036C67.2787 41.036 67.1027 40.992 66.9907 40.904C66.8787 40.808 66.8227 40.636 66.8227 40.388L66.8107 39.62C66.8027 39.468 66.7987 39.252 66.7987 38.972L66.8107 38.18C66.8267 37.796 66.8347 37.484 66.8347 37.244C66.8347 37.156 66.8147 37.076 66.7747 37.004C66.7427 36.932 66.6747 36.86 66.5707 36.788ZM70.9262 38.252C70.9262 37.764 71.0342 37.36 71.2502 37.04C71.4662 36.712 71.7662 36.404 72.1502 36.116C72.2622 36.036 72.4502 35.968 72.7142 35.912C72.9782 35.848 73.2102 35.816 73.4102 35.816C73.6502 35.816 73.9022 35.868 74.1662 35.972C74.4382 36.068 74.6582 36.18 74.8262 36.308C75.1222 36.524 75.3262 36.776 75.4382 37.064C75.5502 37.344 75.6062 37.68 75.6062 38.072C75.6062 38.24 75.5102 38.404 75.3182 38.564C75.1342 38.716 74.9342 38.792 74.7182 38.792L74.2622 38.78C74.0302 38.78 73.6982 38.788 73.2662 38.804L73.0142 38.816C72.8382 38.832 72.7062 38.84 72.6182 38.84C72.4902 38.84 72.3142 38.824 72.0902 38.792C72.1222 39.168 72.2622 39.464 72.5102 39.68C72.7582 39.888 73.0262 39.992 73.3142 39.992C73.8182 39.992 74.1702 39.892 74.3702 39.692C74.5382 39.572 74.6502 39.496 74.7062 39.464C74.7622 39.432 74.8502 39.416 74.9702 39.416C75.0982 39.416 75.2102 39.476 75.3062 39.596C75.4022 39.716 75.4502 39.836 75.4502 39.956C75.4502 40.092 75.3662 40.232 75.1982 40.376C75.0382 40.512 74.8182 40.656 74.5382 40.808C74.3862 40.872 74.1782 40.928 73.9142 40.976C73.6502 41.024 73.4302 41.048 73.2542 41.048C72.9742 41.048 72.6622 40.968 72.3182 40.808C71.9742 40.64 71.7182 40.456 71.5502 40.256C71.3822 40.056 71.2342 39.772 71.1062 39.404C70.9862 39.036 70.9262 38.652 70.9262 38.252ZM73.3142 37.928C73.8822 37.928 74.2982 37.908 74.5622 37.868C74.5462 37.636 74.4742 37.448 74.3462 37.304C74.2182 37.152 74.0422 37.024 73.8182 36.92C73.7462 36.888 73.6822 36.864 73.6262 36.848C73.5702 36.832 73.5062 36.824 73.4342 36.824C73.0662 36.824 72.7542 36.924 72.4982 37.124C72.2502 37.324 72.1022 37.58 72.0542 37.892C72.4542 37.916 72.8742 37.928 73.3142 37.928ZM76.6455 38.288C76.6455 38 76.6975 37.732 76.8015 37.484C76.9055 37.228 77.0575 36.964 77.2575 36.692C77.4575 36.42 77.7335 36.208 78.0855 36.056C78.4375 35.896 78.8215 35.816 79.2375 35.816C79.5575 35.816 79.8655 35.884 80.1615 36.02C80.4655 36.148 80.7375 36.308 80.9775 36.5C81.0095 36.556 81.0655 36.66 81.1455 36.812C81.2255 36.956 81.2815 37.088 81.3135 37.208C81.3535 37.328 81.3735 37.452 81.3735 37.58C81.3735 38.116 81.1775 38.476 80.7855 38.66C80.3935 38.836 79.8975 38.924 79.2975 38.924C78.6975 38.924 78.2095 38.884 77.8335 38.804C77.8495 38.956 77.8895 39.108 77.9535 39.26C78.0175 39.412 78.0935 39.528 78.1815 39.608C78.3415 39.76 78.4975 39.86 78.6495 39.908C78.8095 39.948 79.0215 39.968 79.2855 39.968C79.6855 39.968 79.9975 39.892 80.2215 39.74C80.4295 39.604 80.5895 39.536 80.7015 39.536C80.8535 39.536 80.9695 39.584 81.0495 39.68C81.1295 39.768 81.1695 39.884 81.1695 40.028C81.1695 40.332 80.9735 40.58 80.5815 40.772C80.1975 40.964 79.7615 41.06 79.2735 41.06C78.8895 41.06 78.5095 40.992 78.1335 40.856C77.7575 40.72 77.4575 40.528 77.2335 40.28C77.0815 40.024 76.9455 39.712 76.8255 39.344C76.7055 38.976 76.6455 38.624 76.6455 38.288ZM79.2855 36.8C79.1095 36.8 78.9255 36.832 78.7335 36.896C78.5495 36.952 78.4055 37.04 78.3015 37.16C78.1735 37.296 78.0775 37.42 78.0135 37.532C77.9575 37.644 77.9215 37.784 77.9055 37.952C77.9935 37.952 78.0775 37.956 78.1575 37.964C78.2375 37.972 78.3135 37.98 78.3855 37.988C78.7375 38.02 79.0015 38.036 79.1775 38.036C79.5295 38.036 79.7975 37.984 79.9815 37.88C80.1735 37.776 80.2695 37.636 80.2695 37.46C80.2695 37.292 80.1615 37.14 79.9455 37.004C79.7375 36.868 79.5175 36.8 79.2855 36.8ZM83.4545 41.048C83.2945 41.048 83.1585 41.02 83.0465 40.964C82.9345 40.908 82.8665 40.848 82.8425 40.784C82.7545 40.464 82.7105 40.044 82.7105 39.524C82.7105 38.564 82.7265 37.784 82.7585 37.184C82.7905 36.472 82.8065 35.788 82.8065 35.132C82.8065 34.94 82.7825 34.66 82.7345 34.292C82.7265 34.228 82.7145 34.112 82.6985 33.944C82.6825 33.776 82.6745 33.62 82.6745 33.476C82.6745 33.3 82.7345 33.16 82.8545 33.056C82.9825 32.952 83.1465 32.9 83.3465 32.9C83.5065 32.9 83.6345 32.952 83.7305 33.056C83.8345 33.152 83.8865 33.284 83.8865 33.452C83.8865 33.708 83.8945 34.068 83.9105 34.532C83.9265 34.964 83.9345 35.288 83.9345 35.504C83.9345 35.744 83.9265 36.064 83.9105 36.464C83.8945 36.704 83.8865 36.88 83.8865 36.992C83.8865 37.344 83.8905 37.636 83.8985 37.868C84.1945 37.572 84.5825 37.224 85.0625 36.824C85.5425 36.424 85.9145 36.144 86.1785 35.984C86.4585 35.816 86.6425 35.732 86.7305 35.732C86.8985 35.732 87.0425 35.768 87.1625 35.84C87.2825 35.912 87.3425 36.016 87.3425 36.152C87.3425 36.288 87.3225 36.396 87.2825 36.476C87.2425 36.556 87.1705 36.636 87.0665 36.716L85.7105 37.712C85.8465 37.768 85.9745 37.892 86.0945 38.084C86.2225 38.276 86.3745 38.536 86.5505 38.864C86.7505 39.24 86.9145 39.52 87.0425 39.704C87.1785 39.888 87.3145 39.98 87.4505 39.98L87.7505 39.968C87.8065 39.968 87.8545 40 87.8945 40.064C87.9425 40.128 87.9665 40.22 87.9665 40.34C87.9665 40.524 87.8745 40.672 87.6905 40.784C87.5145 40.896 87.3145 40.952 87.0905 40.952C86.7785 40.952 86.5025 40.832 86.2625 40.592C86.0225 40.344 85.7945 40.012 85.5785 39.596L85.3145 39.068C85.2025 38.844 85.1145 38.684 85.0505 38.588C84.9945 38.492 84.9265 38.428 84.8465 38.396L83.8865 39.164L83.9345 40.472C83.9345 40.68 83.8785 40.828 83.7665 40.916C83.6625 41.004 83.5585 41.048 83.4545 41.048ZM91.9218 37.82C92.2898 37.82 92.4738 38.028 92.4738 38.444C92.4738 38.66 92.3978 38.816 92.2458 38.912C92.1018 39.008 91.9218 39.056 91.7058 39.056C91.6418 39.056 91.5738 39.052 91.5018 39.044C91.4298 39.036 91.3538 39.028 91.2738 39.02C91.0338 38.98 90.8178 38.96 90.6258 38.96C90.4898 38.96 90.2858 38.976 90.0138 39.008C89.7258 39.04 89.5058 39.056 89.3538 39.056C89.1378 39.056 88.9458 39.016 88.7778 38.936C88.6098 38.848 88.5258 38.704 88.5258 38.504C88.5258 38.224 88.6298 38.044 88.8378 37.964C89.0458 37.876 89.3378 37.832 89.7138 37.832L90.1098 37.844C90.3018 37.86 90.4498 37.868 90.5538 37.868L91.4298 37.844L91.9218 37.82ZM99.6302 34.556C99.7502 34.7 99.8342 34.816 99.8822 34.904C99.9302 34.992 99.9542 35.076 99.9542 35.156C99.9542 35.252 99.8902 35.364 99.7622 35.492C99.6422 35.62 99.5222 35.684 99.4022 35.684C99.2422 35.684 99.1142 35.66 99.0182 35.612C98.9222 35.564 98.8422 35.488 98.7782 35.384C98.6262 35.144 98.4502 34.932 98.2502 34.748C98.0502 34.556 97.7822 34.46 97.4462 34.46C97.1182 34.46 96.7502 34.536 96.3422 34.688C95.9342 34.84 95.6342 35.028 95.4422 35.252C95.0102 35.78 94.7942 36.48 94.7942 37.352C94.7942 38.048 95.0102 38.644 95.4422 39.14C95.8982 39.652 96.4742 39.908 97.1702 39.908C97.4902 39.908 97.8382 39.852 98.2142 39.74C98.5982 39.62 98.9022 39.428 99.1262 39.164H99.1142C99.2582 39.012 99.4382 38.936 99.6542 38.936C99.7822 38.936 99.9022 38.992 100.014 39.104C100.134 39.216 100.194 39.328 100.194 39.44C100.194 39.56 100.174 39.668 100.134 39.764C100.102 39.852 100.038 39.952 99.9422 40.064C99.6142 40.424 99.1942 40.676 98.6822 40.82C98.1782 40.956 97.6022 41.024 96.9542 41.024C96.4182 41.024 95.9022 40.896 95.4062 40.64C94.9182 40.384 94.5142 40.06 94.1942 39.668C94.0342 39.436 93.8782 39.104 93.7262 38.672C93.5822 38.232 93.5102 37.876 93.5102 37.604C93.5102 36.908 93.6142 36.248 93.8222 35.624C94.0382 34.992 94.3582 34.488 94.7822 34.112C95.0622 33.856 95.4662 33.664 95.9942 33.536C96.5222 33.408 97.0062 33.344 97.4462 33.344C97.7982 33.344 98.0982 33.396 98.3462 33.5C98.6022 33.596 98.8222 33.728 99.0062 33.896C99.1902 34.056 99.3982 34.276 99.6302 34.556ZM106.717 40.424C106.717 40.6 106.621 40.748 106.429 40.868C106.245 40.988 106.073 41.048 105.913 41.048C105.609 41.048 105.365 41.012 105.181 40.94C105.005 40.86 104.841 40.716 104.689 40.508C104.481 40.692 104.197 40.832 103.837 40.928C103.477 41.016 103.145 41.06 102.841 41.06C102.345 41.06 101.937 40.928 101.617 40.664C101.297 40.392 101.137 39.996 101.137 39.476C101.137 39.252 101.197 39.048 101.317 38.864C101.437 38.672 101.601 38.504 101.809 38.36C102.041 38.208 102.305 38.092 102.601 38.012C102.897 37.924 103.205 37.88 103.525 37.88C103.693 37.88 103.893 37.912 104.125 37.976C104.357 38.04 104.537 38.108 104.665 38.18V37.988C104.665 37.556 104.561 37.26 104.353 37.1C104.145 36.932 103.809 36.848 103.345 36.848C103.209 36.848 103.073 36.876 102.937 36.932C102.809 36.988 102.661 37.064 102.493 37.16C102.269 37.28 102.057 37.34 101.857 37.34C101.785 37.34 101.717 37.292 101.653 37.196C101.589 37.092 101.557 37 101.557 36.92C101.557 36.688 101.665 36.488 101.881 36.32C102.105 36.152 102.369 36.028 102.673 35.948C102.977 35.86 103.249 35.816 103.489 35.816C103.729 35.816 104.005 35.864 104.317 35.96C104.629 36.048 104.885 36.172 105.085 36.332C105.325 36.54 105.509 36.784 105.637 37.064C105.773 37.336 105.841 37.636 105.841 37.964C105.841 38.068 105.833 38.224 105.817 38.432C105.801 38.656 105.793 38.848 105.793 39.008C105.793 39.08 105.785 39.188 105.769 39.332C105.753 39.508 105.745 39.648 105.745 39.752C105.745 39.848 105.781 39.932 105.853 40.004C105.925 40.068 106.009 40.1 106.105 40.1L106.441 40.088C106.529 40.088 106.597 40.12 106.645 40.184C106.693 40.248 106.717 40.328 106.717 40.424ZM102.853 40.112C103.197 40.112 103.485 40.076 103.717 40.004C103.949 39.932 104.229 39.8 104.557 39.608C104.589 39.472 104.609 39.292 104.617 39.068C104.177 38.86 103.813 38.756 103.525 38.756C103.197 38.756 102.905 38.816 102.649 38.936C102.393 39.056 102.265 39.268 102.265 39.572C102.265 39.724 102.329 39.852 102.457 39.956C102.585 40.06 102.717 40.112 102.853 40.112ZM107.456 36.848C107.344 36.832 107.252 36.784 107.18 36.704C107.116 36.624 107.084 36.528 107.084 36.416C107.084 36.36 107.096 36.3 107.12 36.236C107.152 36.172 107.196 36.116 107.252 36.068C107.356 35.964 107.636 35.912 108.092 35.912C108.156 35.6 108.188 35.284 108.188 34.964C108.188 34.844 108.184 34.74 108.176 34.652C108.168 34.564 108.164 34.496 108.164 34.448C108.164 34.272 108.228 34.14 108.356 34.052C108.492 33.964 108.644 33.92 108.812 33.92C109.02 33.92 109.16 33.972 109.232 34.076C109.312 34.18 109.352 34.372 109.352 34.652C109.352 35.068 109.316 35.476 109.244 35.876C109.372 35.876 109.548 35.868 109.772 35.852C110.076 35.836 110.296 35.828 110.432 35.828C110.568 35.828 110.684 35.864 110.78 35.936C110.884 36 110.936 36.092 110.936 36.212C110.936 36.524 110.796 36.708 110.516 36.764C110.22 36.836 109.76 36.88 109.136 36.896C109.112 37.208 109.1 37.548 109.1 37.916C109.1 38.492 109.136 38.964 109.208 39.332C109.256 39.588 109.336 39.776 109.448 39.896C109.568 40.008 109.744 40.064 109.976 40.064C110.112 40.064 110.252 40.028 110.396 39.956C110.492 39.9 110.58 39.872 110.66 39.872C110.772 39.872 110.852 39.908 110.9 39.98C110.956 40.052 110.984 40.148 110.984 40.268C110.984 40.492 110.864 40.68 110.624 40.832C110.384 40.976 110.076 41.048 109.7 41.048C109.468 41.048 109.232 40.992 108.992 40.88C108.76 40.768 108.564 40.628 108.404 40.46C108.38 40.436 108.336 40.344 108.272 40.184C108.208 40.024 108.152 39.852 108.104 39.668C108.024 39.292 107.984 38.764 107.984 38.084C107.984 37.788 108 37.392 108.032 36.896L107.456 36.848ZM116.864 41.036C116.264 41.036 115.86 40.804 115.652 40.34C115.548 40.108 115.48 39.808 115.448 39.44C115.416 39.064 115.4 38.624 115.4 38.12V37.748C115.4 37.172 115.208 36.884 114.824 36.884C114.6 36.884 114.376 37 114.152 37.232C113.928 37.456 113.74 37.756 113.588 38.132C113.444 38.5 113.372 38.884 113.372 39.284C113.372 39.548 113.384 39.788 113.408 40.004C113.424 40.276 113.432 40.484 113.432 40.628C113.432 40.9 113.244 41.036 112.868 41.036C112.684 41.036 112.52 40.996 112.376 40.916C112.24 40.836 112.172 40.732 112.172 40.604C112.204 40.196 112.22 39.692 112.22 39.092L112.208 37.508C112.208 37.252 112.188 36.304 112.148 34.664L112.112 33.56C112.112 33.384 112.192 33.232 112.352 33.104C112.512 32.968 112.692 32.9 112.892 32.9C113.068 32.9 113.196 32.94 113.276 33.02C113.356 33.1 113.396 33.224 113.396 33.392C113.396 33.6 113.392 33.844 113.384 34.124C113.376 34.396 113.368 34.604 113.36 34.748C113.336 35.156 113.324 35.564 113.324 35.972C113.324 36.372 113.316 36.688 113.3 36.92C113.54 36.568 113.812 36.308 114.116 36.14C114.428 35.964 114.792 35.876 115.208 35.876C115.512 35.876 115.792 36.012 116.048 36.284C116.312 36.548 116.472 36.852 116.528 37.196C116.544 37.372 116.552 37.632 116.552 37.976L116.54 38.852C116.54 38.988 116.548 39.2 116.564 39.488C116.572 39.624 116.616 39.768 116.696 39.92C116.784 40.072 116.884 40.184 116.996 40.256C117.1 40.32 117.168 40.384 117.2 40.448C117.232 40.512 117.248 40.584 117.248 40.664C117.248 40.744 117.212 40.828 117.14 40.916C117.068 40.996 116.976 41.036 116.864 41.036ZM122.825 37.148C122.889 37.26 122.941 37.424 122.981 37.64C123.021 37.848 123.041 38.036 123.041 38.204C123.041 38.42 123.017 38.66 122.969 38.924C122.921 39.188 122.877 39.392 122.837 39.536C122.285 40.544 121.469 41.048 120.389 41.048C119.989 41.048 119.581 40.916 119.165 40.652C118.749 40.388 118.461 40.084 118.301 39.74C118.085 39.06 117.977 38.624 117.977 38.432C117.977 38.112 118.045 37.772 118.181 37.412C118.325 37.052 118.505 36.74 118.721 36.476C118.865 36.292 119.113 36.136 119.465 36.008C119.817 35.872 120.137 35.804 120.425 35.804C120.985 35.804 121.457 35.912 121.841 36.128C122.233 36.336 122.561 36.676 122.825 37.148ZM121.781 39.08C121.821 39 121.841 38.732 121.841 38.276C121.841 38.044 121.797 37.816 121.709 37.592C121.629 37.368 121.509 37.176 121.349 37.016C121.333 37 121.289 36.976 121.217 36.944C121.145 36.904 121.045 36.868 120.917 36.836C120.797 36.796 120.657 36.776 120.497 36.776C120.049 36.776 119.721 36.956 119.513 37.316C119.305 37.676 119.201 38.084 119.201 38.54C119.201 38.612 119.225 38.76 119.273 38.984C119.321 39.208 119.357 39.352 119.381 39.416C119.445 39.528 119.573 39.66 119.765 39.812C119.965 39.956 120.181 40.028 120.413 40.028C120.773 40.028 121.057 39.944 121.265 39.776C121.481 39.6 121.653 39.368 121.781 39.08ZM125.535 39.14C125.535 39.444 125.579 39.68 125.667 39.848C125.763 40.008 125.883 40.088 126.027 40.088C126.107 40.088 126.183 40.084 126.255 40.076C126.327 40.06 126.399 40.052 126.471 40.052C126.551 40.052 126.619 40.092 126.675 40.172C126.739 40.252 126.771 40.34 126.771 40.436C126.771 40.628 126.679 40.78 126.495 40.892C126.319 40.996 126.079 41.048 125.775 41.048C125.559 41.048 125.339 40.984 125.115 40.856C124.899 40.72 124.719 40.512 124.575 40.232C124.431 39.944 124.359 39.588 124.359 39.164C124.359 38.252 124.375 37.48 124.407 36.848C124.447 36.096 124.467 35.148 124.467 34.004C124.467 33.644 124.487 33.392 124.527 33.248C124.575 33.136 124.651 33.052 124.755 32.996C124.867 32.932 124.983 32.9 125.103 32.9C125.223 32.9 125.327 32.92 125.415 32.96C125.511 33 125.575 33.064 125.607 33.152C125.639 33.248 125.659 33.344 125.667 33.44C125.683 33.528 125.691 33.656 125.691 33.824C125.691 34.152 125.679 34.468 125.655 34.772C125.639 35.14 125.631 35.408 125.631 35.576C125.567 36.984 125.535 38.172 125.535 39.14ZM128.177 33.296C128.457 33.32 128.697 33.396 128.897 33.524C129.105 33.644 129.209 33.828 129.209 34.076C129.209 34.26 129.125 34.408 128.957 34.52C128.789 34.624 128.581 34.676 128.333 34.676C128.101 34.676 127.941 34.616 127.853 34.496C127.765 34.376 127.721 34.252 127.721 34.124C127.721 33.892 127.749 33.696 127.805 33.536C127.861 33.368 127.985 33.288 128.177 33.296ZM127.937 38.252V37.904C127.937 37.504 127.917 37.14 127.877 36.812C127.845 36.476 127.825 36.268 127.817 36.188C127.825 36.1 127.885 36.016 127.997 35.936C128.109 35.856 128.209 35.816 128.297 35.816C128.449 35.816 128.601 35.848 128.753 35.912C128.913 35.968 129.013 36.04 129.053 36.128C129.093 36.424 129.113 36.652 129.113 36.812C129.113 37.164 129.129 37.74 129.161 38.54L129.173 39.008L129.197 39.464C129.205 39.592 129.213 39.744 129.221 39.92C129.229 40.096 129.233 40.296 129.233 40.52C129.233 40.672 129.157 40.8 129.005 40.904C128.861 41.008 128.709 41.06 128.549 41.06C128.317 41.06 128.153 41.008 128.057 40.904C127.969 40.8 127.925 40.636 127.925 40.412L127.937 38.252ZM134.896 36.992C134.896 37.344 134.716 37.52 134.356 37.52C134.236 37.52 134.136 37.492 134.056 37.436C133.976 37.38 133.888 37.296 133.792 37.184C133.552 36.92 133.344 36.788 133.168 36.788C132.936 36.788 132.708 36.856 132.484 36.992C132.268 37.128 132.092 37.32 131.956 37.568C131.82 37.816 131.752 38.092 131.752 38.396C131.752 38.732 131.816 39.012 131.944 39.236C132.08 39.46 132.288 39.652 132.568 39.812C132.672 39.868 132.792 39.912 132.928 39.944C133.072 39.976 133.196 39.992 133.3 39.992C133.532 39.992 133.824 39.9 134.176 39.716C134.304 39.652 134.412 39.604 134.5 39.572C134.588 39.54 134.68 39.524 134.776 39.524C134.864 39.524 134.964 39.564 135.076 39.644C135.188 39.724 135.244 39.824 135.244 39.944C135.244 40.184 135.132 40.388 134.908 40.556C134.684 40.716 134.408 40.84 134.08 40.928C133.76 41.008 133.452 41.048 133.156 41.048C132.684 41.048 132.244 40.94 131.836 40.724C131.436 40.508 131.116 40.212 130.876 39.836C130.636 39.452 130.516 39.02 130.516 38.54C130.516 38.028 130.632 37.56 130.864 37.136C131.096 36.712 131.408 36.38 131.8 36.14C132.192 35.9 132.62 35.78 133.084 35.78C133.348 35.78 133.62 35.828 133.9 35.924C134.18 36.02 134.416 36.16 134.608 36.344C134.8 36.528 134.896 36.744 134.896 36.992ZM145.04 34.34C145.16 34.484 145.244 34.6 145.292 34.688C145.34 34.776 145.364 34.86 145.364 34.94C145.364 35.036 145.3 35.148 145.172 35.276C145.052 35.404 144.932 35.468 144.812 35.468C144.652 35.468 144.524 35.444 144.428 35.396C144.332 35.348 144.252 35.272 144.188 35.168C144.06 34.976 143.904 34.812 143.72 34.676C143.536 34.532 143.248 34.46 142.856 34.46C142.52 34.46 142.136 34.536 141.704 34.688C141.28 34.84 140.976 35.028 140.792 35.252C140.632 35.452 140.492 35.756 140.372 36.164C140.26 36.572 140.204 36.968 140.204 37.352C140.204 37.816 140.304 38.244 140.504 38.636C140.712 39.02 141.008 39.328 141.392 39.56C141.784 39.792 142.252 39.908 142.796 39.908C143.092 39.908 143.396 39.852 143.708 39.74C144.028 39.62 144.304 39.428 144.536 39.164H144.524C144.668 39.012 144.848 38.936 145.064 38.936C145.192 38.936 145.312 38.992 145.424 39.104C145.544 39.216 145.604 39.328 145.604 39.44C145.604 39.56 145.584 39.668 145.544 39.764C145.512 39.852 145.448 39.952 145.352 40.064C145.024 40.432 144.636 40.684 144.188 40.82C143.74 40.956 143.204 41.024 142.58 41.024C142.028 41.024 141.468 40.892 140.9 40.628C140.34 40.364 139.908 40.044 139.604 39.668C139.444 39.436 139.288 39.104 139.136 38.672C138.992 38.232 138.92 37.876 138.92 37.604C138.92 36.908 139.024 36.248 139.232 35.624C139.448 34.992 139.768 34.488 140.192 34.112C140.472 33.856 140.876 33.664 141.404 33.536C141.932 33.408 142.416 33.344 142.856 33.344C143.392 33.344 143.812 33.42 144.116 33.572C144.428 33.716 144.736 33.972 145.04 34.34ZM151.563 41.036C150.963 41.036 150.559 40.804 150.351 40.34C150.247 40.108 150.179 39.808 150.147 39.44C150.115 39.064 150.099 38.624 150.099 38.12V37.748C150.099 37.172 149.907 36.884 149.523 36.884C149.299 36.884 149.075 37 148.851 37.232C148.627 37.456 148.439 37.756 148.287 38.132C148.143 38.5 148.071 38.884 148.071 39.284C148.071 39.548 148.083 39.788 148.107 40.004C148.123 40.276 148.131 40.484 148.131 40.628C148.131 40.9 147.943 41.036 147.567 41.036C147.383 41.036 147.219 40.996 147.075 40.916C146.939 40.836 146.871 40.732 146.871 40.604C146.903 40.196 146.919 39.692 146.919 39.092L146.907 37.508C146.907 37.252 146.887 36.304 146.847 34.664L146.811 33.56C146.811 33.384 146.891 33.232 147.051 33.104C147.211 32.968 147.391 32.9 147.591 32.9C147.767 32.9 147.895 32.94 147.975 33.02C148.055 33.1 148.095 33.224 148.095 33.392C148.095 33.6 148.091 33.844 148.083 34.124C148.075 34.396 148.067 34.604 148.059 34.748C148.035 35.156 148.023 35.564 148.023 35.972C148.023 36.372 148.015 36.688 147.999 36.92C148.239 36.568 148.511 36.308 148.815 36.14C149.127 35.964 149.491 35.876 149.907 35.876C150.211 35.876 150.491 36.012 150.747 36.284C151.011 36.548 151.171 36.852 151.227 37.196C151.243 37.372 151.251 37.632 151.251 37.976L151.239 38.852C151.239 38.988 151.247 39.2 151.263 39.488C151.271 39.624 151.315 39.768 151.395 39.92C151.483 40.072 151.583 40.184 151.695 40.256C151.799 40.32 151.867 40.384 151.899 40.448C151.931 40.512 151.947 40.584 151.947 40.664C151.947 40.744 151.911 40.828 151.839 40.916C151.767 40.996 151.675 41.036 151.563 41.036ZM152.568 36.956C152.504 36.956 152.444 36.932 152.388 36.884C152.34 36.828 152.316 36.764 152.316 36.692C152.316 36.508 152.396 36.336 152.556 36.176C152.604 36.152 152.7 36.112 152.844 36.056C152.988 36 153.116 35.972 153.228 35.972C153.532 35.972 153.78 36.056 153.972 36.224C154.164 36.384 154.26 36.616 154.26 36.92C154.26 37.008 154.244 37.196 154.212 37.484C154.18 37.82 154.164 38.08 154.164 38.264C154.164 38.824 154.24 39.276 154.392 39.62C154.448 39.732 154.536 39.82 154.656 39.884C154.776 39.948 154.884 39.98 154.98 39.98C155.212 39.98 155.4 39.94 155.544 39.86C155.688 39.78 155.844 39.652 156.012 39.476C156.18 39.3 156.288 39.1 156.336 38.876C156.392 38.652 156.432 38.344 156.456 37.952C156.472 37.696 156.488 37.508 156.504 37.388C156.544 37.004 156.564 36.676 156.564 36.404C156.564 36.228 156.612 36.084 156.708 35.972C156.804 35.852 156.936 35.792 157.104 35.792C157.2 35.792 157.308 35.824 157.428 35.888C157.556 35.944 157.64 36.012 157.68 36.092C157.728 36.172 157.752 36.304 157.752 36.488C157.752 36.584 157.74 36.676 157.716 36.764C157.66 36.964 157.632 37.204 157.632 37.484L157.644 38.108C157.644 38.676 157.684 39.096 157.764 39.368C157.804 39.496 157.86 39.628 157.932 39.764C158.004 39.892 158.072 40 158.136 40.088C158.296 40.264 158.4 40.388 158.448 40.46C158.496 40.524 158.52 40.588 158.52 40.652C158.52 40.748 158.472 40.84 158.376 40.928C158.288 41.008 158.192 41.048 158.088 41.048C157.792 41.048 157.536 40.948 157.32 40.748C157.104 40.548 156.944 40.288 156.84 39.968C156.568 40.28 156.316 40.532 156.084 40.724C155.924 40.836 155.728 40.92 155.496 40.976C155.264 41.024 155.032 41.048 154.8 41.048C154.488 41.048 154.172 40.92 153.852 40.664C153.532 40.408 153.316 40.112 153.204 39.776C153.196 39.76 153.172 39.696 153.132 39.584C153.1 39.472 153.084 39.304 153.084 39.08C153.084 38.784 153.1 38.412 153.132 37.964C153.156 37.676 153.168 37.412 153.168 37.172C153.168 37.1 153.14 37.04 153.084 36.992C153.036 36.944 152.98 36.92 152.916 36.92C152.868 36.92 152.812 36.928 152.748 36.944C152.692 36.952 152.632 36.956 152.568 36.956ZM161.097 40.52C161.081 40.656 161.025 40.776 160.929 40.88C160.833 40.984 160.709 41.036 160.557 41.036C160.317 41.036 160.141 40.992 160.029 40.904C159.917 40.808 159.861 40.636 159.861 40.388C159.861 40.052 159.881 39.684 159.921 39.284C159.953 38.82 159.969 38.464 159.969 38.216C159.969 38.088 159.961 37.928 159.945 37.736C159.929 37.56 159.921 37.428 159.921 37.34C159.897 37.204 159.841 37.096 159.753 37.016C159.673 36.936 159.545 36.868 159.369 36.812C159.297 36.78 159.237 36.728 159.189 36.656C159.141 36.576 159.117 36.504 159.117 36.44C159.117 36.256 159.189 36.116 159.333 36.02C159.477 35.924 159.653 35.876 159.861 35.876C160.093 35.876 160.293 35.956 160.461 36.116C160.629 36.276 160.757 36.476 160.845 36.716C161.029 36.452 161.253 36.24 161.517 36.08C161.789 35.92 162.053 35.84 162.309 35.84C162.637 35.84 162.913 35.896 163.137 36.008C163.369 36.112 163.485 36.296 163.485 36.56C163.485 36.712 163.417 36.872 163.281 37.04C163.153 37.2 163.021 37.28 162.885 37.28C162.781 37.28 162.657 37.232 162.513 37.136C162.457 37.096 162.393 37.064 162.321 37.04C162.257 37.008 162.189 36.992 162.117 36.992C161.989 36.992 161.869 37.012 161.757 37.052C161.645 37.092 161.569 37.14 161.529 37.196C161.401 37.396 161.305 37.576 161.241 37.736C161.185 37.896 161.157 38.068 161.157 38.252C161.157 38.388 161.153 38.496 161.145 38.576L161.133 39.26L161.145 39.716C161.145 40.052 161.129 40.32 161.097 40.52ZM168.459 36.992C168.459 37.344 168.279 37.52 167.919 37.52C167.799 37.52 167.699 37.492 167.619 37.436C167.539 37.38 167.451 37.296 167.355 37.184C167.115 36.92 166.907 36.788 166.73 36.788C166.499 36.788 166.271 36.856 166.047 36.992C165.831 37.128 165.655 37.32 165.519 37.568C165.383 37.816 165.315 38.092 165.315 38.396C165.315 38.732 165.379 39.012 165.507 39.236C165.643 39.46 165.851 39.652 166.131 39.812C166.235 39.868 166.355 39.912 166.491 39.944C166.635 39.976 166.759 39.992 166.863 39.992C167.095 39.992 167.387 39.9 167.739 39.716C167.867 39.652 167.975 39.604 168.063 39.572C168.151 39.54 168.243 39.524 168.339 39.524C168.427 39.524 168.527 39.564 168.639 39.644C168.751 39.724 168.807 39.824 168.807 39.944C168.807 40.184 168.695 40.388 168.471 40.556C168.247 40.716 167.971 40.84 167.643 40.928C167.323 41.008 167.015 41.048 166.719 41.048C166.247 41.048 165.807 40.94 165.399 40.724C164.999 40.508 164.679 40.212 164.439 39.836C164.199 39.452 164.079 39.02 164.079 38.54C164.079 38.028 164.195 37.56 164.427 37.136C164.659 36.712 164.971 36.38 165.363 36.14C165.755 35.9 166.183 35.78 166.646 35.78C166.911 35.78 167.183 35.828 167.463 35.924C167.743 36.02 167.979 36.16 168.171 36.344C168.363 36.528 168.459 36.744 168.459 36.992ZM174.72 41.036C174.12 41.036 173.716 40.804 173.508 40.34C173.404 40.108 173.336 39.808 173.304 39.44C173.272 39.064 173.256 38.624 173.256 38.12V37.748C173.256 37.172 173.064 36.884 172.68 36.884C172.456 36.884 172.232 37 172.008 37.232C171.784 37.456 171.596 37.756 171.444 38.132C171.3 38.5 171.228 38.884 171.228 39.284C171.228 39.548 171.24 39.788 171.264 40.004C171.28 40.276 171.288 40.484 171.288 40.628C171.288 40.9 171.1 41.036 170.724 41.036C170.54 41.036 170.376 40.996 170.232 40.916C170.096 40.836 170.028 40.732 170.028 40.604C170.06 40.196 170.076 39.692 170.076 39.092L170.064 37.508C170.064 37.252 170.044 36.304 170.004 34.664L169.968 33.56C169.968 33.384 170.048 33.232 170.208 33.104C170.368 32.968 170.548 32.9 170.748 32.9C170.924 32.9 171.052 32.94 171.132 33.02C171.212 33.1 171.252 33.224 171.252 33.392C171.252 33.6 171.248 33.844 171.24 34.124C171.232 34.396 171.224 34.604 171.216 34.748C171.192 35.156 171.18 35.564 171.18 35.972C171.18 36.372 171.172 36.688 171.156 36.92C171.396 36.568 171.668 36.308 171.972 36.14C172.284 35.964 172.648 35.876 173.064 35.876C173.368 35.876 173.648 36.012 173.904 36.284C174.168 36.548 174.328 36.852 174.384 37.196C174.4 37.372 174.408 37.632 174.408 37.976L174.396 38.852C174.396 38.988 174.404 39.2 174.42 39.488C174.428 39.624 174.472 39.768 174.552 39.92C174.64 40.072 174.74 40.184 174.852 40.256C174.956 40.32 175.024 40.384 175.056 40.448C175.088 40.512 175.104 40.584 175.104 40.664C175.104 40.744 175.068 40.828 174.996 40.916C174.924 40.996 174.832 41.036 174.72 41.036Z" fill="#9EBFF5"/>
</svg>
