<svg width="1440" height="451" viewBox="0 0 1440 451" fill="none" xmlns="http://www.w3.org/2000/svg">
<path d="M0 10.446C0 10.446 102.887 54.1221 169 48.8406C249.241 42.4304 280.354 12.7242 360 3.13394C503.469 -14.1413 580.115 47.2349 725.5 48.8406C871.649 50.4548 938.625 3.7113 1084.5 10.446C1186.71 15.1647 1233.34 50.7846 1335.5 45.5441C1376.26 43.4532 1440 21.3297 1440 21.3297V414.588C1440 414.588 1403.5 439.414 1335.5 443.688C1267.5 447.961 1182.68 409.753 1079 404.482C934.938 397.158 864.41 451 720 451C575.59 451 503.376 391.868 360 404.482C282.318 411.316 247.189 435.568 169 433.451C98.9478 431.554 0 389.213 0 389.213V10.446Z" fill="#DBEBF8"/>
</svg>
