<svg width="219" height="218" viewBox="0 0 219 218" fill="none" xmlns="http://www.w3.org/2000/svg">
<g filter="url(#filter0_d_186_412)">
<rect x="31.5" y="20" width="160" height="160" rx="50" fill="white"/>
<path d="M147.684 52.6433C145.923 52.7183 144.118 53.3344 142.35 54.4963C140.931 55.4143 139.545 56.3197 138.11 57.2048C133.937 59.7381 129.751 62.1651 125.582 64.6218C123.783 65.7212 122.277 66.1481 121.898 62.9627C121.663 60.8453 121.033 58.8781 120.6 56.8342C122.002 55.9616 123.404 55.0874 124.791 54.182C127.068 52.7105 129.442 52.1397 131.539 52.3461L147.684 52.6433Z" fill="url(#paint0_linear_186_412)"/>
<path d="M81.9355 88.371C80.8209 88.7228 79.8058 88.9621 78.8544 89.2514C78.2 89.4265 77.5424 89.6783 76.9331 90.0255C69.518 94.2117 62.1978 98.5856 54.7827 102.772C52.9873 103.798 51.8649 105.311 51.5851 107.104C51.3846 108.19 51.5416 109.366 52.0235 110.567C52.9422 112.797 53.9246 115.004 54.8931 117.179C55.19 117.851 55.4698 118.491 55.7341 119.176C56.3901 120.646 57.0135 122.132 57.6197 123.583C62.3719 134.751 67.107 145.964 71.8436 157.099C72.1078 157.709 72.425 158.186 72.7763 158.576C73.5737 159.468 74.5764 159.833 75.6723 159.676L92.5311 159.995C91.7181 159.933 90.9579 159.586 90.3206 158.857C89.9848 158.499 89.6537 157.991 89.4034 157.412C88.8127 155.992 88.2033 154.614 87.6126 153.195C83.4854 143.435 79.341 133.644 75.1811 123.895C74.5578 122.413 73.9344 120.929 73.2799 119.459C73.0328 118.807 72.7359 118.133 72.4545 117.492C71.4705 115.285 70.5036 113.112 69.5849 110.88C69.103 109.679 68.9459 108.505 69.1309 107.387C69.4263 105.627 70.5316 104.079 72.3426 103.086C79.7421 98.8702 87.1105 94.5135 94.4913 90.3398C95.1007 89.9926 95.7583 89.7408 96.3972 89.5344C97.3485 89.2451 98.3792 89.0371 99.4782 88.654L81.9355 88.371Z" fill="url(#paint1_linear_186_412)"/>
<path d="M106.03 40.183C104.84 40.2283 103.63 40.466 102.383 40.8679C100.285 41.5216 98.9962 42.4645 98.3495 43.8344L98.3324 43.8798L98.348 43.911C98.1956 44.2332 98.0728 44.6163 98.0013 45.0182C97.8163 46.1363 97.8878 47.4561 98.2469 49.1169C98.4397 50.052 98.634 50.9903 98.7941 51.9379C99.2138 53.8739 99.6973 55.7849 100.182 57.6958C100.562 59.1611 100.891 60.606 101.188 62.0635C101.525 63.9916 101.797 65.9479 101.824 67.9589C101.807 68.7877 101.791 69.6181 101.741 70.4594L101.755 70.5673C101.695 71.2272 101.665 71.8746 101.603 72.5346C101.171 78.0141 100.101 83.5514 99.4812 88.6556L81.9354 88.3741C82.5401 83.2387 83.6267 77.7341 84.0588 72.2531C84.121 71.5916 84.1334 70.9145 84.1956 70.2546L84.1972 70.1795C84.2454 69.3366 84.2469 68.475 84.2283 67.6587C84.236 65.6367 83.9811 63.7132 83.594 61.7648C83.3298 60.2948 82.9987 58.8499 82.6364 57.4143C82.1514 55.5034 81.6524 53.5627 81.2498 51.658C81.0881 50.7088 80.8954 49.7721 80.6855 48.8041C80.3435 47.1778 80.2549 45.8251 80.4555 44.7383C80.5285 44.3364 80.6498 43.9533 80.7866 43.6014C81.4022 42.169 82.7048 41.2573 84.8221 40.5598C85.6584 40.2768 86.5088 40.1001 87.3591 40L91.1708 40.0375L106.03 40.183Z" fill="url(#paint2_linear_186_412)"/>
<path d="M149.42 72.1202C149.484 72.1437 149.546 72.1609 149.606 72.1687C149.543 72.1609 149.482 72.139 149.42 72.1202Z" fill="url(#paint3_linear_186_412)"/>
<path d="M162.823 80.9415C164.558 77.2088 164.724 73.6246 163.207 70.4266C160.687 65.141 158.966 66.4734 156.515 64.3044C157.374 57.014 153.305 52.6213 148.268 52.6401L147.682 52.6417C145.921 52.7167 144.116 53.3329 142.349 54.4948C140.929 55.4127 139.543 56.3181 138.108 57.2032C133.935 59.7366 129.749 62.1636 125.58 64.6203C123.781 65.7196 122.275 66.1465 121.896 62.9611C121.661 60.8437 121.031 58.8765 120.598 56.8326C120.419 55.9288 120.257 55.0546 120.228 54.1304C119.813 46.1676 113.629 39.889 106.144 40.1736L106.029 40.1799C104.838 40.2252 103.629 40.4629 102.382 40.8648C100.283 41.5185 98.9946 42.4614 98.3479 43.8313L98.3308 43.8767L98.3463 43.9079C98.194 44.2301 98.0712 44.6132 97.9997 45.0151C97.8147 46.1332 97.8862 47.453 98.2453 49.1138C98.4381 50.0489 98.6324 50.9872 98.7925 51.9348C99.2122 53.8708 99.6957 55.7818 100.181 57.6927C100.56 59.158 100.89 60.6029 101.186 62.0604C101.524 63.9885 101.796 65.9448 101.822 67.9558C101.805 68.7846 101.79 69.615 101.74 70.4563L101.754 70.5642C101.693 71.2241 101.664 71.8716 101.601 72.5315C101.169 78.011 100.1 83.5483 99.4796 88.6525C98.379 89.0357 97.3499 89.2436 96.3985 89.5329C95.7581 89.7394 95.1021 89.9911 94.4927 90.3383C87.1118 94.512 79.7434 98.8687 72.3439 103.085C70.5313 104.078 69.4261 105.626 69.1323 107.385C68.9473 108.503 69.1027 109.679 69.5862 110.879C70.5034 113.11 71.4718 115.285 72.4558 117.49C72.7357 118.13 73.0326 118.804 73.2813 119.458C73.9373 120.928 74.5591 122.412 75.1825 123.894C79.3424 133.643 83.4867 143.434 87.6139 153.193C88.2047 154.613 88.814 155.991 89.4047 157.411C89.655 157.989 89.9861 158.497 90.3219 158.856C90.9593 159.584 91.7194 159.931 92.5324 159.994C93.3781 160.042 94.3124 159.799 95.2513 159.251C101.151 155.87 107.07 152.369 112.954 148.88C114.785 147.768 116.598 146.699 118.445 145.618C119.5 144.991 120.251 144.065 120.697 142.997L120.924 142.2L120.941 142.154C121.104 141.305 121.106 140.37 120.865 139.415C120.682 138.736 120.682 137.949 120.668 137.843C125.521 136.282 130.441 135.485 134.986 133.072C139.942 130.463 144.853 127.61 149.75 124.723C151.744 123.548 153.738 122.372 155.7 121.209C158.486 119.581 161.239 117.966 164.023 116.414C164.121 116.377 164.236 116.294 164.336 116.256C167.35 114.541 169.316 112.367 170.37 110.092C170.93 108.941 171.245 107.771 171.382 106.635L171.415 106.622C171.763 103.87 171.017 101.199 169.602 99.3832C168.775 98.2761 167.617 97.5223 166.608 96.5981C169.677 88.7213 168.534 83.8439 162.823 80.9415ZM116.61 139.357C116.797 139.81 116.868 140.343 117.126 141.33C113.893 143.316 110.758 145.34 107.625 147.215C103.454 149.673 99.2091 151.823 95.0989 154.48C93.4481 155.562 92.8915 154.84 92.3614 153.62C92.0039 152.746 91.6137 151.886 91.2562 151.012C86.1745 139.183 81.2078 127.35 76.1913 115.498C75.6784 114.235 75.1327 112.983 74.6042 111.689C74.5591 111.52 74.4643 111.331 74.371 111.143C73.9373 110.037 73.4367 108.88 72.9548 107.679C78.8729 104.179 84.6604 100.728 90.4292 97.3206C92.0117 96.4167 93.6843 95.8491 95.1409 94.6934C95.3073 94.5543 95.4549 94.4604 95.5715 94.3791C95.7192 94.2837 95.8498 94.2337 95.9493 94.1962C96.0146 94.1711 96.0659 94.1148 96.1311 94.0898C96.2633 94.0398 96.4079 94.0194 96.5244 94.0148C96.5571 94.0022 96.5571 94.0022 96.5897 93.9897L96.6379 94.0085C96.7203 94.0163 96.8338 94.0085 96.9473 94.0789C96.9799 94.0664 96.9799 94.0664 97.011 94.1289C97.0592 94.1477 97.1074 94.1664 97.1727 94.2165C97.2846 94.2853 97.3654 94.3682 97.4121 94.4604C97.4913 94.5418 97.5395 94.6371 97.5862 94.7294C97.7447 94.9687 97.8707 95.2204 97.995 95.5473C103.414 108.444 108.898 121.314 114.4 134.141C115.115 135.888 115.863 137.622 116.61 139.357ZM157.272 80.635C156.787 81.3074 156.251 82.0362 155.683 82.7023C155.049 83.4701 155.511 85.7251 156.504 85.758C158.229 85.8455 160.115 85.2357 161.721 85.6313C163.701 86.0707 164.606 88.1193 164.423 90.809C164.227 93.3157 162.943 94.8185 161.101 95.749C160.46 96.032 159.801 96.4355 159.364 97.0501C158.223 98.7608 159.386 100.935 160.328 101.099C160.443 101.092 160.505 101.142 160.605 101.105C160.687 101.113 160.768 101.119 160.833 101.094C160.914 101.1 161.028 101.092 161.094 101.067C161.405 100.986 161.716 100.905 162.013 100.791C162.128 100.784 162.226 100.747 162.324 100.709C162.439 100.702 162.537 100.664 162.602 100.639C162.75 100.62 162.896 100.601 163.011 100.595C165.587 100.506 167.17 102.11 167.468 105.215C167.762 108.47 165.848 110.513 163.673 111.795C156.6 115.961 149.468 119.928 142.412 124.127C141.836 124.462 141.259 124.793 140.698 125.158C139.906 125.609 139.1 126.108 138.324 126.592C133.163 129.728 128.019 131.883 122.552 132.37C121.882 132.439 121.23 132.464 120.644 132.388C120.06 132.313 119.524 132.181 119.04 131.916C117.862 131.356 116.921 130.257 116.191 128.402C115.631 127.045 115.12 125.708 114.558 124.349C113.579 121.994 112.646 119.655 111.681 117.329C111.089 115.984 110.528 114.627 109.968 113.27C109.376 111.925 108.814 110.567 108.221 109.221C106.772 105.846 105.289 102.484 103.758 99.1784C102.29 95.9226 103.057 92.5229 103.431 89.1217C104.135 82.302 105.424 75.4839 105.867 68.6892C105.889 68.4203 105.909 68.1482 105.931 67.8792C105.918 67.6978 105.939 67.5023 105.926 67.3194C105.911 67.2865 105.928 67.2443 105.912 67.2115C105.9 67.0301 105.92 66.8346 105.892 66.6219C105.88 66.439 105.85 66.2247 105.822 66.012C105.796 65.7227 105.768 65.4334 105.726 65.1129C105.696 64.9737 105.699 64.8236 105.668 64.6844C105.64 64.4702 105.597 64.2262 105.552 63.9791C105.555 63.8274 105.525 63.6898 105.494 63.5506C105.433 63.3505 105.405 63.1362 105.376 62.9236C105.329 62.7531 105.301 62.5389 105.241 62.3403C105.003 61.1581 104.717 59.9571 104.479 58.7764C104.303 57.7959 104.093 56.8279 103.885 55.8599C103.602 54.4322 103.288 53.0185 102.957 51.5736C102.627 50.1287 102.312 48.7134 101.982 47.2685C101.895 46.779 102.052 46.1567 102.128 45.6797C108.476 42.7241 113.621 46.2192 114.972 50.4915C115.448 51.9943 115.841 53.5643 116.202 55.1484C116.52 56.412 116.772 57.7005 117.055 58.975C117.367 60.5404 117.68 62.1057 118.023 63.657C118.637 66.4546 119.152 69.2882 119.822 72.5878C126.432 68.672 132.714 64.9565 139.025 61.3035C139.504 61.0095 140.031 60.7327 140.508 60.4356C142.569 59.2346 144.68 57.9023 146.812 57.2361C150.27 56.1743 153.207 59.391 152.235 63.2441C152.217 63.363 152.182 63.4506 152.164 63.571C152.111 63.7774 152.008 63.9666 151.923 64.1855C151.688 64.5749 151.452 64.9643 151.136 65.349C150.516 66.2232 149.732 67.0832 149.146 67.9449C148.189 69.3961 148.217 70.547 148.577 71.2695C148.672 71.4587 148.781 71.6026 148.926 71.7355C148.957 71.7981 148.972 71.8293 149.022 71.8465C149.167 71.9795 149.279 72.0483 149.425 72.1061C149.473 72.1249 149.537 72.1749 149.603 72.1499C150.367 72.2688 151.345 71.4837 152.186 70.9755C154.394 69.6807 156.717 69.2413 158.331 70.9051C159.384 71.9982 160.156 74.2485 160.037 76.0515C159.907 77.5293 158.327 79.2198 157.272 80.635Z" fill="#8D99AF"/>
<path d="M167.46 105.207C167.749 108.472 165.851 110.505 163.661 111.801C156.599 115.977 149.468 119.935 142.409 124.127C141.835 124.462 141.263 124.803 140.685 125.158C139.897 125.627 139.11 126.104 138.322 126.582C133.158 129.732 128.024 131.871 122.566 132.37C119.502 132.656 117.537 131.819 116.184 128.421C115.643 127.054 115.095 125.7 114.54 124.338C113.591 122 112.635 119.664 111.667 117.343C111.098 115.988 110.529 114.633 109.952 113.279C109.383 111.923 108.807 110.571 108.219 109.232C106.761 105.856 105.278 102.5 103.761 99.1721C102.282 95.9195 103.053 92.5167 103.412 89.117C104.131 82.3067 105.429 75.4667 105.884 68.6971C105.901 68.4187 105.911 68.1451 105.914 67.8714C105.92 67.6853 105.92 67.5023 105.912 67.3209C105.915 67.285 105.911 67.2506 105.906 67.2099C105.904 67.0176 105.895 66.8284 105.879 66.6423C105.876 66.4327 105.858 66.231 105.833 66.0214C105.794 65.582 105.74 65.1395 105.673 64.7016C105.643 64.4592 105.6 64.2215 105.556 63.9776C105.539 63.8353 105.508 63.6992 105.483 63.5507C105.444 63.3552 105.405 63.1519 105.367 62.9486C105.328 62.7453 105.289 62.5498 105.244 62.3497C104.997 61.1502 104.715 59.9633 104.491 58.7733C104.308 57.8022 104.112 56.8373 103.901 55.8772C103.596 54.4385 103.271 53.0139 102.945 51.583C102.626 50.149 102.299 48.7166 101.995 47.2763C101.894 46.7994 102.069 46.1723 102.111 45.6828C108.468 42.7148 113.626 46.2317 114.959 50.4962C116.278 54.6856 117.049 59.244 118.013 63.6664C118.627 66.4562 119.158 69.2866 119.817 72.5768C126.949 68.3828 133.705 64.3763 140.486 60.4481C142.557 59.2409 144.671 57.921 146.801 57.2595C150.267 56.1899 153.199 59.4004 152.246 63.2645C152.223 63.3693 152.192 63.4693 152.154 63.5788C152.084 63.7805 151.994 63.9901 151.896 64.1856C151.685 64.5906 151.428 64.9784 151.144 65.3662C150.499 66.2357 149.726 67.0739 149.134 67.959C147.589 70.2796 148.61 71.8278 149.417 72.1218C149.479 72.1405 149.54 72.1624 149.603 72.1702C150.353 72.2766 151.326 71.4822 152.168 70.9912C154.388 69.701 156.708 69.2366 158.32 70.9098C159.377 71.9998 160.154 74.236 160.022 76.0547C159.919 77.5293 158.334 79.2151 157.264 80.6397C156.767 81.3028 156.237 82.0502 155.692 82.6867C155.029 83.467 155.492 85.7283 156.495 85.7721C158.225 85.8596 160.106 85.2404 161.727 85.6235C163.69 86.0926 164.592 88.1083 164.401 90.8059C164.224 93.3236 162.946 94.8201 161.079 95.7396C160.473 96.043 159.795 96.4339 159.369 97.061C158.223 98.7515 159.377 100.924 160.344 101.103C160.432 101.113 160.513 101.125 160.605 101.117C160.684 101.121 160.763 101.117 160.849 101.102C160.928 101.097 161.012 101.083 161.096 101.06C161.399 101.003 161.704 100.895 162.018 100.802C162.122 100.77 162.234 100.736 162.34 100.712C162.438 100.684 162.529 100.666 162.621 100.648C162.755 100.623 162.884 100.609 163.013 100.603C165.576 100.525 167.183 102.103 167.46 105.207Z" fill="url(#paint4_linear_186_412)"/>
<path d="M72.9438 107.684C78.8759 104.17 84.6509 100.733 90.4368 97.3346C91.9976 96.4183 93.6796 95.8412 95.1424 94.7059C96.7124 93.4862 97.2689 93.863 97.9809 95.5566C104.137 110.203 110.392 124.771 116.607 139.371C116.798 139.82 116.878 140.359 117.131 141.318C113.896 143.327 110.776 145.348 107.614 147.213C103.451 149.67 99.1965 151.812 95.1051 154.486C93.4557 155.565 92.8852 154.854 92.3598 153.622C86.9454 140.928 81.5683 128.207 76.1866 115.487C75.1342 112.998 74.1082 110.488 72.9438 107.684Z" fill="url(#paint5_linear_186_412)"/>
</g>
<defs>
<filter id="filter0_d_186_412" x="0.5" y="0" width="218" height="218" filterUnits="userSpaceOnUse" color-interpolation-filters="sRGB">
<feFlood flood-opacity="0" result="BackgroundImageFix"/>
<feColorMatrix in="SourceAlpha" type="matrix" values="0 0 0 0 0 0 0 0 0 0 0 0 0 0 0 0 0 0 127 0" result="hardAlpha"/>
<feOffset dx="-2" dy="9"/>
<feGaussianBlur stdDeviation="14.5"/>
<feComposite in2="hardAlpha" operator="out"/>
<feColorMatrix type="matrix" values="0 0 0 0 0.750833 0 0 0 0 0.788406 0 0 0 0 0.85 0 0 0 1 0"/>
<feBlend mode="normal" in2="BackgroundImageFix" result="effect1_dropShadow_186_412"/>
<feBlend mode="normal" in="SourceGraphic" in2="effect1_dropShadow_186_412" result="shape"/>
</filter>
<linearGradient id="paint0_linear_186_412" x1="120.56" y1="61.0909" x2="145.646" y2="48.5705" gradientUnits="userSpaceOnUse">
<stop stop-color="#465A80"/>
<stop offset="0.6513" stop-color="#2B3D52"/>
<stop offset="1" stop-color="#20313F"/>
</linearGradient>
<linearGradient id="paint1_linear_186_412" x1="75.3159" y1="104.009" x2="73.9733" y2="116.02" gradientUnits="userSpaceOnUse">
<stop stop-color="#465A80"/>
<stop offset="0.6513" stop-color="#2B3D52"/>
<stop offset="1" stop-color="#20313F"/>
</linearGradient>
<linearGradient id="paint2_linear_186_412" x1="73.6033" y1="71.682" x2="112.147" y2="52.4453" gradientUnits="userSpaceOnUse">
<stop stop-color="#465A80"/>
<stop offset="0.6513" stop-color="#2B3D52"/>
<stop offset="1" stop-color="#20313F"/>
</linearGradient>
<linearGradient id="paint3_linear_186_412" x1="149.417" y1="72.1792" x2="149.595" y2="72.1576" gradientUnits="userSpaceOnUse">
<stop stop-color="#122535"/>
<stop offset="1" stop-color="#354249"/>
</linearGradient>
<linearGradient id="paint4_linear_186_412" x1="145.744" y1="53.3666" x2="88.9417" y2="147.281" gradientUnits="userSpaceOnUse">
<stop offset="0.00045606" stop-color="white"/>
<stop offset="1" stop-color="#CAD2FF"/>
</linearGradient>
<linearGradient id="paint5_linear_186_412" x1="66.7592" y1="185.872" x2="158.634" y2="-11.1651" gradientUnits="userSpaceOnUse">
<stop stop-color="#85AEFC"/>
<stop offset="0.2094" stop-color="#85AEFC"/>
<stop offset="1" stop-color="white"/>
</linearGradient>
</defs>
</svg>
